<?xml version="1.0" encoding="UTF-8" standalone="no"?>
<!-- Created with Inkscape (http://www.inkscape.org/) -->

<svg
   xmlns:dc="http://purl.org/dc/elements/1.1/"
   xmlns:cc="http://creativecommons.org/ns#"
   xmlns:rdf="http://www.w3.org/1999/02/22-rdf-syntax-ns#"
   xmlns:svg="http://www.w3.org/2000/svg"
   xmlns="http://www.w3.org/2000/svg"
   xmlns:xlink="http://www.w3.org/1999/xlink"
   xmlns:sodipodi="http://sodipodi.sourceforge.net/DTD/sodipodi-0.dtd"
   xmlns:inkscape="http://www.inkscape.org/namespaces/inkscape"
   width="210mm"
   height="297mm"
   viewBox="0 0 744.09448819 1052.3622047"
   id="svg2"
   version="1.1"
   inkscape:version="0.91 r13725"
   sodipodi:docname="logo_final.svg">
  <defs
     id="defs4" />
  <sodipodi:namedview
     id="base"
     pagecolor="#ffffff"
     bordercolor="#666666"
     borderopacity="1.0"
     inkscape:pageopacity="0.0"
     inkscape:pageshadow="2"
     inkscape:zoom="1.4142136"
     inkscape:cx="383.09613"
     inkscape:cy="495.11183"
     inkscape:document-units="px"
     inkscape:current-layer="layer1"
     showgrid="false"
     inkscape:window-width="1920"
     inkscape:window-height="1018"
     inkscape:window-x="-8"
     inkscape:window-y="-8"
     inkscape:window-maximized="1"
     showguides="false" />
  <metadata
     id="metadata7">
    <rdf:RDF>
      <cc:Work
         rdf:about="">
        <dc:format>image/svg+xml</dc:format>
        <dc:type
           rdf:resource="http://purl.org/dc/dcmitype/StillImage" />
        <dc:title></dc:title>
      </cc:Work>
    </rdf:RDF>
  </metadata>
  <g
     inkscape:label="Calque 1"
     inkscape:groupmode="layer"
     id="layer1">
    <text
       transform="translate(47.645913,4.4668041)"
       sodipodi:linespacing="125%"
       id="text4310"
       style="font-style:normal;font-weight:normal;font-size:40px;line-height:125%;font-family:sans-serif;letter-spacing:0px;word-spacing:0px;fill:#6e9fee;fill-opacity:1;stroke:#3b65aa;stroke-width:1px;stroke-linecap:butt;stroke-linejoin:miter;stroke-opacity:1"
       xml:space="preserve"><textPath
         id="textPath4312"
         xlink:href="#path4298"><tspan
   id="tspan4314"><tspan
     x="194.73624"
     y="283.7731"
     style="font-style:normal;font-variant:normal;font-weight:500;font-stretch:normal;line-height:123.00000191%;font-family:'Adobe Naskh';-inkscape-font-specification:'Adobe Naskh Medium';letter-spacing:0px;word-spacing:0px;writing-mode:tb-rl;fill:#6e9fee;fill-opacity:1;stroke:#3b65aa;stroke-opacity:1"
     id="tspan4316">EI</tspan></tspan></textPath></text>
    <g
       id="logo_visu_4"
       inkscape:export-xdpi="134.20319"
       inkscape:export-ydpi="134.20319"
       inkscape:label="#g5399"
       transform="translate(-2288.1975,350.72496)">
      <g
         transform="translate(2185.7561,50.62378)"
         id="g4860">
        <path
           inkscape:connector-curvature="0"
           id="path4605"
           d="m 483.78867,-36.883567 c -3.37614,-0.24377 -8.43538,2.8681 -20.79239,10.85502 -32.2213,20.8255198 -65.36145,30.6878798 -117.63731,35.0024998 -9.69231,0.79996 -10.4466,1.9385702 -13.07153,19.7077602 -4.40541,29.82062 -3.92232,119.478807 0.77692,144.001177 12.28707,64.11961 53.97027,116.48738 122.00979,153.28918 11.31438,6.11981 22.88591,11.14576 25.7145,11.16976 19.08873,0.16458 86.45145,-46.85801 108.91838,-76.0319 29.17361,-37.88177 40.31072,-71.84633 44.16996,-134.71313 2.44836,-39.881807 -3.92472,-115.061327 -10.08489,-118.9764172 -2.28104,-1.44971 -12.63096,-2.68383 -23.00247,-2.74555 -39.51769,-0.23486 -94.34031,-18.8274698 -111.52994,-37.8217398 -2.0215,-2.23397 -3.44506,-3.59032 -5.47102,-3.73666 z"
           style="fill:#dadada;fill-opacity:1;stroke:#000000;stroke-width:5.72900009;stroke-linecap:round;stroke-linejoin:round;stroke-miterlimit:4;stroke-dasharray:none;stroke-opacity:1" />
        <rect
           style="fill:#991e1e;fill-opacity:1;stroke:none;stroke-width:0.2;stroke-linecap:round;stroke-linejoin:round;stroke-miterlimit:4;stroke-dasharray:none;stroke-opacity:1"
           id="rect4607"
           width="35.362198"
           height="25.31189"
           x="430.67438"
           y="128.85046" />
        <rect
           style="fill:#ffe76c;fill-opacity:1;stroke:none;stroke-width:0.2;stroke-linecap:round;stroke-linejoin:round;stroke-miterlimit:4;stroke-dasharray:none;stroke-opacity:1"
           id="rect4609"
           width="35.362198"
           height="25.31189"
           x="430.67438"
           y="128.85046" />
        <rect
           y="127.91988"
           x="498.4209"
           height="25.31189"
           width="35.362198"
           id="rect4611"
           style="fill:#ffe76c;fill-opacity:1;stroke:none;stroke-width:0.2;stroke-linecap:round;stroke-linejoin:round;stroke-miterlimit:4;stroke-dasharray:none;stroke-opacity:1" />
        <path
           sodipodi:nodetypes="ccccccccccc"
           inkscape:connector-curvature="0"
           id="path4613"
           d="M 373.35038,265.08798 C 312.1863,202.3156 322.02543,138.01627 352.51416,73.272863 l 22.74825,14.37892 c -36.84525,70.642567 -17.79459,139.787477 38.2239,187.872747 46.35418,7.83705 85.64642,5.2508 131.25879,-1.43509 74.16629,-38.53494 75.16154,-147.96452 43.55656,-181.828707 2.32818,-0.40358 17.68242,-10.87819 20.00626,-11.32334 54.11098,6.23417 9.86994,192.490057 -15.33968,183.033887 l -43.55134,45.04027 -138.09869,5.58351 z"
           style="fill:#a5a5a5;fill-opacity:1;fill-rule:evenodd;stroke:none;stroke-width:1px;stroke-linecap:butt;stroke-linejoin:miter;stroke-opacity:1" />
        <path
           id="path4615"
           d="m 481.07372,53.428433 0,0.53125 -30.79493,0.25781 2.10547,50.537107 4.73633,6.8418 -2.63086,22.63672 11.05469,20.0039 -2.10547,7.89649 -26.84766,0 -5.52734,10.00195 14.21289,16.31836 4.47461,18.6875 0.52734,9.74023 -5.26562,-1.05273 -3.6836,-3.68555 -20.0039,30.53125 42.63867,22.63672 12.89844,10.79102 4.73633,9.47656 0.002,-1.05273 4.47266,-8.94922 12.89843,-10.79297 42.63868,-22.63477 -20.00391,-30.5332 -3.68359,3.68555 -5.26563,1.05273 0.52734,-9.73828 4.47461,-18.6875 14.21289,-16.32031 -5.52734,-10.00196 -26.84766,0 -2.10547,-7.89648 11.05469,-20.00391 -2.63086,-22.63476 4.73633,-6.84375 2.10547,-50.535157 -31.58398,-0.26367 z"
           style="fill:#ffffff;fill-opacity:1;fill-rule:evenodd;stroke:none;stroke-width:1px;stroke-linecap:butt;stroke-linejoin:miter;stroke-opacity:1"
           inkscape:connector-curvature="0" />
        <path
           style="fill:#6e9fee;fill-opacity:1;fill-rule:evenodd;stroke:none;stroke-width:1px;stroke-linecap:butt;stroke-linejoin:miter;stroke-opacity:1"
           d="m 392.89858,20.526883 -6.31702,49.48328 12.63403,27.37373 -10.00194,31.585077 -1.57925,16.31895 6.31701,-3.1585 -4.21134,23.6888 2.10567,25.26806 11.5812,22.63597 11.05477,-10.00194 -5.26418,12.10762 2.10568,14.7397 10.00194,11.58119 20.00388,-32.11149 4.21134,6.31701 4.73776,-1.05283 -6.31701,-27.90015 -13.16045,-13.68687 5.7906,-13.16045 -23.16239,-17.8982 12.63403,-8.94911 11.58119,-2.63209 17.89821,3.15851 1.05284,-19.47746 1.05283,-2.10568 -5.26418,-7.36985 19.47747,-33.164327 -14.21329,-18.95104 -6.31701,-0.52642 -9.47553,15.79254 -10.52835,12.10761 -3.15851,-7.89627 -1.05284,-21.05671 -31.05865,-38.42851 z"
           id="path4617"
           inkscape:connector-curvature="0" />
        <path
           style="fill:#ffffff;fill-opacity:1;fill-rule:evenodd;stroke:none;stroke-width:1px;stroke-linecap:butt;stroke-linejoin:miter;stroke-opacity:1"
           d="m 393.95141,9.4721028 34.21717,41.5870202 1.57925,29.4794 6.84344,-3.68492 13.68686,-23.68881 -23.6888,-24.74164 -22.63598,-16.31896 z"
           id="path4619"
           inkscape:connector-curvature="0" />
        <path
           style="fill:#ffffff;fill-opacity:1;fill-rule:evenodd;stroke:none;stroke-width:1px;stroke-linecap:butt;stroke-linejoin:miter;stroke-opacity:1"
           d="m 393.95141,9.4721028 34.21717,41.5870202 1.57925,29.4794 6.84344,-3.68492 13.68686,-23.68881 -23.6888,-24.74164 -22.63598,-16.31896 z"
           id="path4621"
           inkscape:connector-curvature="0" />
        <path
           inkscape:connector-curvature="0"
           id="path4623"
           d="m 568.72216,10.524943 -34.21717,41.58702 -1.57925,29.4794 -6.84344,-3.68492 -13.68686,-23.68881 23.6888,-24.74164 22.63598,-16.31896 z"
           style="fill:#ffffff;fill-opacity:1;fill-rule:evenodd;stroke:none;stroke-width:1px;stroke-linecap:butt;stroke-linejoin:miter;stroke-opacity:1" />
        <path
           inkscape:connector-curvature="0"
           id="path4625"
           d="m 570.82783,20.526883 6.31702,49.48328 -12.63403,27.37373 10.00194,31.585077 1.57925,16.31895 -6.31701,-3.1585 4.21134,23.6888 -2.10567,25.26806 -11.5812,22.63597 -11.05477,-10.00194 5.26418,12.10762 -2.10568,14.7397 -10.00194,11.58119 -20.00388,-32.11149 -4.21134,6.31701 -4.73776,-1.05283 6.31701,-27.90015 13.16045,-13.68687 -5.7906,-13.16045 23.16239,-17.8982 -12.63403,-8.94911 -11.58119,-2.63209 -17.89821,3.15851 -1.05284,-19.47746 -1.05283,-2.10568 5.26418,-7.36985 -19.47747,-33.164327 14.21329,-18.95104 6.31701,-0.52642 9.47553,15.79254 10.52835,12.10761 3.15851,-7.89627 1.05284,-21.05671 31.05865,-38.42851 z"
           style="fill:#cb635c;fill-opacity:1;fill-rule:evenodd;stroke:none;stroke-width:1px;stroke-linecap:butt;stroke-linejoin:miter;stroke-opacity:1" />
        <path
           style="fill:#906060;fill-opacity:1;stroke:#000000;stroke-width:3.52900004;stroke-linecap:round;stroke-linejoin:round;stroke-miterlimit:4;stroke-dasharray:none;stroke-opacity:1"
           d="m 644.76969,28.485853 c -0.0874,0.0288 -0.11783,0.19308 -0.0895,0.49125 0.0414,0.51388 -0.8413,0.97421 -2.09639,1.09327 -2.45795,0.23321 -8.50136,2.23238 -8.97268,2.9687 -0.17126,0.26775 -1.85183,1.24103 -3.73142,2.15768 -1.87965,0.91642 -3.73698,2.05384 -4.13152,2.53137 -0.39457,0.47729 -2.04692,1.45049 -3.6692,2.16202 l -33.61741,28.93222 c 26.26353,27.67092 36.9961,59.398757 35.85339,97.532037 -2.45323,79.00564 -68.48814,141.06394 -147.49381,138.61176 -79.00568,-2.4519 -141.06509,-68.48577 -138.61424,-147.49148 1.05565,-33.82698 22.95802,-76.846317 31.24412,-89.632047 -7.95446,-8.65948 -14.81112,-18.50256 -24.67619,-27.56063 -0.68165,0.0647 -2.8702,-3.34964 -4.3026,-5.01892 -0.59023,-0.68805 -2.16587,-1.68412 -3.49493,-2.21649 -1.32884,-0.53263 -2.43714,-1.23085 -2.46756,-1.55148 -0.0305,-0.32063 -1.46805,-1.05081 -3.19435,-1.6244 -1.72608,-0.57337 -3.3332,-1.26594 -3.57117,-1.53776 -0.69839,-0.79534 -6.61894,-2.09569 -8.66084,-1.90198 -1.91238,0.18143 -2.35836,0.6265 -7.70251,7.71098 -4.42975,5.87224 -4.64033,6.19895 -4.56318,7.01222 0.0387,0.40639 -0.24676,0.77063 -0.63661,0.80762 -0.38986,0.037 -0.6363,0.86229 -0.54384,1.83692 0.0924,0.97463 0.44703,1.74702 0.78373,1.71506 0.33692,-0.032 1.29303,1.32512 2.12955,3.01588 0.83627,1.69078 1.79354,3.04476 2.12481,3.01335 0.33124,-0.0314 0.85942,0.55647 1.17553,1.30033 0.73226,1.72257 12.33665,11.72368 13.47713,11.61548 1.3054,-0.12385 1.13957,1.07141 -0.44347,3.16145 -2.46969,3.26082 -3.31934,4.66493 -3.11182,5.1435 0.10997,0.25467 -0.23156,0.89074 -0.75874,1.42016 -0.5272,0.52921 -0.92836,1.25898 -0.89437,1.61742 0.034,0.35842 -0.51527,1.39688 -1.21556,2.30771 -0.70031,0.91087 -1.23189,2.07322 -1.18339,2.58451 0.0485,0.51128 -0.15277,0.951 -0.44766,0.97896 -0.29464,0.028 -0.86763,1.05123 -1.27435,2.26992 -0.40673,1.21866 -1.15655,2.25288 -1.66383,2.301 -1.27848,0.12125 -8.66727,-1.50749 -9.15365,-2.018 -0.6897,-0.72392 -5.29063,-1.61562 -7.33274,-1.42189 -1.07884,0.10239 -2.09598,-0.11033 -2.26128,-0.47068 -0.1653,-0.3603 -2.64172,-0.51237 -5.50296,-0.33866 -5.41378,0.33005 -6.44365,0.94979 -6.20272,3.74053 0.0598,0.68281 -0.1869,1.27034 -0.54652,1.30446 -0.35961,0.0341 -0.914,1.21406 -1.23489,2.62127 -0.32088,1.40722 -0.81114,2.57828 -1.08566,2.60432 -0.27456,0.026 -0.77426,1.47126 -1.11422,3.21498 -0.33999,1.74374 -1.00415,4.11715 -1.47062,5.271167 -0.68096,1.68549 -0.65639,2.19324 0.11634,2.58649 0.71048,0.35956 0.73759,0.5235 0.10422,0.58359 -0.47231,0.0448 0.59089,1.24351 2.36155,2.64897 1.77092,1.40544 3.51247,2.52764 3.86525,2.49418 0.35251,-0.0334 1.34508,0.68118 2.20745,1.58657 0.86257,0.90515 1.84438,1.4321 2.18433,1.17336 0.34044,-0.25638 0.85178,-0.006 1.12909,0.55546 0.27846,0.56028 2.12416,1.43023 4.10792,1.93813 1.98376,0.50794 3.62667,1.12908 3.65042,1.37955 0.0238,0.25021 1.36193,0.75436 2.97015,1.12102 2.30346,0.52525 2.95503,1.0217 3.07899,2.32827 0.0865,0.91226 -0.1241,1.68372 -0.47297,1.71683 -0.34897,0.0332 -0.9448,2.98529 -1.3212,6.56125 -0.37643,3.57596 -0.91064,6.52455 -1.18898,6.55095 -0.27833,0.0264 -0.55787,1.74222 -0.61957,3.8131 l -0.11193,3.76651 -12.72395,1.2071 c -8.44632,0.80132 -12.87037,1.48321 -13.1572,2.03061 -0.23754,0.4538 -1.25218,1.1121 -2.25406,1.4601 -2.12283,0.73756 -2.51618,2.30565 -2.01364,7.85396 0.2004,2.16425 0.10076,4.26336 -0.21915,4.66729 -0.51691,0.65268 -0.47795,6.57006 0.062,9.74822 0.11462,0.67596 1.30059,1.47151 2.76292,1.84842 1.41132,0.36414 2.58965,0.88807 2.61617,1.16758 0.0265,0.27977 2.33391,0.87592 5.12955,1.31994 2.79569,0.44424 5.1034,1.01853 5.12835,1.28153 0.025,0.26297 2.69623,0.44658 5.93738,0.4049 9.00721,-0.11598 8.02453,-1.34397 9.71735,12.13672 1.02818,8.18902 1.26336,12.04559 0.76399,12.62866 -0.39559,0.46165 -3.23246,1.50411 -6.30238,2.31531 -3.06992,0.8112 -5.72904,1.77672 -5.9134,2.14512 -0.18417,0.36816 -1.94714,1.32023 -3.91471,2.11363 -1.96736,0.79338 -3.5478,1.7478 -3.51213,2.12373 0.0355,0.37591 -1.13929,1.34809 -2.61149,2.15886 -1.5053,0.82893 -2.7832,2.11757 -2.91898,2.94792 -0.28966,1.78163 2.04051,10.93223 2.76612,10.86338 0.28234,-0.0269 0.91006,1.83018 1.39453,4.13461 1.02696,4.88419 2.32503,6.23825 5.67987,5.91998 1.3366,-0.12683 2.45677,0.0861 2.49376,0.47549 0.0399,0.4201 2.66986,0.46529 6.45024,0.1066 3.50866,-0.33288 6.34951,-0.88829 6.31677,-1.23328 -0.0327,-0.34495 1.75408,-1.02122 3.9701,-1.50276 2.21628,-0.48132 4.65599,-1.0868 5.41845,-1.34271 1.5681,-0.52877 3.22171,1.98763 5.47568,8.32624 0.71044,1.99785 1.53978,3.60867 1.84103,3.58009 0.30102,-0.0286 1.02854,1.23842 1.61774,2.81533 0.58917,1.57643 1.58602,3.29249 2.21514,3.81235 1.74671,1.44443 1.26843,3.76538 -0.9822,4.75633 -1.08562,0.478 -2.50273,1.44214 -3.14578,2.14229 -1.99717,2.17512 -2.92496,3.00547 -4.6222,4.12295 -2.30375,1.51688 -9.05054,9.5886 -8.9443,10.70855 0.047,0.52167 -0.23227,0.77541 -0.61531,0.58526 -0.98312,-0.48532 -1.45783,2.30073 -0.69767,4.08885 0.34927,0.82176 1.28026,2.06464 2.06546,2.76208 0.78516,0.69723 1.71331,2.16248 2.06452,3.25608 0.35122,1.0936 0.9477,1.9597 1.32645,1.92376 0.37897,-0.036 1.2795,1.04088 2.00026,2.39074 0.72073,1.35011 2.1531,3.20276 3.18162,4.12053 1.86591,1.6651 1.88004,1.66576 7.28143,0.29315 2.97714,-0.75637 5.56685,-1.63271 5.75142,-1.94871 0.18527,-0.31629 2.11611,-1.3128 4.29203,-2.21702 2.17616,-0.90424 3.92979,-1.92522 3.89776,-2.26284 -0.0321,-0.33765 1.32518,-1.29565 3.01597,-2.13193 1.69077,-0.83651 3.05046,-1.79973 3.0185,-2.13663 -0.0708,-0.74712 2.03167,-1.02543 2.12627,-0.27937 0.0639,0.57017 2.2933,2.99498 5.77639,6.2875 1.19052,1.12532 2.39531,2.59582 2.68057,3.26561 0.28454,0.66984 0.77243,1.19273 1.08385,1.1632 0.6403,-0.0607 6.31966,5.78892 6.39541,6.58729 0.027,0.28494 -0.66965,1.34251 -1.5503,2.35248 -0.88093,1.01 -1.58528,2.16314 -1.54727,2.56363 0.0307,0.40117 -0.74003,1.66781 -1.71328,2.81269 -2.97846,3.50432 -3.80138,4.93376 -4.42812,7.68309 -0.33148,1.45375 -0.84569,2.66508 -1.14599,2.69357 -0.56115,0.0531 -2.2672,6.83176 -2.11728,8.41195 0.0461,0.4853 1.3363,1.85498 2.86731,3.04357 1.53098,1.18836 3.51391,2.81145 4.40612,3.61175 0.892,0.80055 1.91599,1.42916 2.28057,1.39458 0.36457,-0.0347 1.99436,1.14024 3.61938,2.61125 2.71698,2.45928 3.15535,2.61568 5.46489,1.95148 1.38152,-0.39736 2.48919,-1.00399 2.45676,-1.34588 -0.0325,-0.34213 1.02647,-1.09396 2.35187,-1.6753 1.32518,-0.58129 2.22269,-1.30043 1.99924,-1.5951 -0.22321,-0.29494 0.51428,-1.02189 1.63538,-1.616 1.99341,-1.0562 3.97935,-3.24609 9.62444,-10.60111 2.36276,-3.07852 2.90733,-3.46573 3.54895,-2.53747 0.41698,0.60294 1.14096,1.06031 1.60883,1.0164 0.76914,-0.0723 3.31458,1.4025 6.67641,3.86927 0.68497,0.50289 2.6179,1.37206 4.29525,1.92956 1.67713,0.55752 3.07612,1.2458 3.10358,1.53523 0.0275,0.28968 1.19933,0.82727 2.61064,1.19141 2.26199,0.58331 3.77539,2.40373 2.12691,2.56013 -0.33836,0.0322 -0.96545,2.00215 -1.39482,4.3742 -0.42911,2.37227 -1.10753,4.45369 -1.50588,4.62976 -0.39859,0.17608 -0.84448,2.8177 -0.99273,5.86877 -0.14797,3.05102 -0.52361,5.57062 -0.83571,5.60023 -0.31237,0.0296 -0.4165,1.64807 -0.23162,3.59732 0.40822,4.30278 1.73991,5.61237 6.94966,6.81074 2.03356,0.4677 5.01222,1.85176 5.23347,2.29922 0.0471,0.0956 0.53181,-0.24587 1.26424,-0.86249 -0.1161,0.16596 -0.45308,0.59312 -0.45083,0.61674 0.0232,0.24478 1.51481,0.71104 3.31575,1.03582 1.80093,0.32477 3.30231,0.86495 3.33449,1.20425 0.0322,0.33928 0.4884,0.57757 1.01245,0.52786 1.05117,-0.0998 8.26733,-8.24947 8.17418,-9.2312 -0.0322,-0.33811 0.50458,-1.23078 1.19356,-1.98465 0.68923,-0.75365 1.66972,-2.99153 2.17589,-4.96868 0.50615,-1.9774 1.16075,-3.61494 1.45846,-3.64316 0.29767,-0.0282 0.76597,-1.37093 1.03984,-2.98227 0.27412,-1.61113 0.82099,-2.77267 1.21438,-2.57875 0.39343,0.19394 0.68461,0.0151 0.64547,-0.39726 -0.0392,-0.41277 0.72535,-0.82363 1.69998,-0.9161 0.97463,-0.0924 1.80244,0.13575 1.83796,0.51029 0.0354,0.37474 2.01338,0.89689 4.39833,1.15814 2.38495,0.26128 4.35903,0.68742 4.38339,0.94425 0.0243,0.25658 2.44203,0.64258 5.37159,0.86218 l 5.32844,0.39802 1.00082,11.64314 c 0.63748,7.41314 1.28626,11.80278 1.78826,12.08009 0.43374,0.23968 1.21477,1.6834 1.73507,3.20749 0.71572,2.09607 1.33687,2.79364 2.5592,2.84935 0.88915,0.042 1.64363,0.35313 1.67627,0.69713 0.0326,0.34427 2.06628,0.55086 4.51597,0.45912 2.4499,-0.0918 6.77907,-0.33063 9.62106,-0.52397 4.88285,-0.33214 5.20301,-0.45262 5.80714,-2.19879 0.35149,-1.01674 0.87781,-1.8708 1.17409,-1.89891 0.29628,-0.0281 0.95087,-3.08542 1.10335,-4.33288 0.0323,-0.26984 0.0457,-0.48733 0.002,-0.69301 l 0.65169,-2.37558 c 0.16114,-1.34652 0.53518,-2.63614 0.82754,-2.86414 0.29212,-0.22796 0.57733,-3.79639 0.63927,-7.92542 0.062,-4.12901 0.1679,-7.55371 0.2289,-7.61197 0.43907,-0.39257 23.82467,-2.95286 24.37396,-2.66097 0.38211,0.20288 1.48926,3.18544 2.45861,6.6306 0.96935,3.44518 2.09823,6.3459 2.51009,6.44033 0.41161,0.0944 0.79339,0.64886 0.84899,1.23504 0.13228,1.39425 5.9014,9.7853 7.42542,10.79933 0.64992,0.43278 2.12839,0.54571 3.28024,0.24809 1.15185,-0.29761 3.42691,-0.87672 5.05944,-1.28908 1.63278,-0.41238 2.94582,-0.99331 2.91783,-1.2884 -0.0281,-0.29511 1.76248,-0.94105 3.97752,-1.433 4.90847,-1.09002 6.42457,-2.02049 6.25152,-3.84454 -0.0727,-0.76575 0.18546,-1.42245 0.5753,-1.45944 0.89751,-0.0851 -0.63174,-16.88982 -1.5594,-17.13557 -0.36461,-0.0965 -1.09203,-2.30883 -1.61977,-4.91383 -0.83055,-4.10061 -0.80331,-4.75159 0.18871,-4.84571 0.63014,-0.0597 1.11594,-0.39081 1.08292,-0.73861 -0.0331,-0.34781 2.11906,-1.39649 4.78459,-2.32404 2.66551,-0.92779 4.82727,-1.91993 4.80014,-2.20607 -0.0271,-0.28611 1.80651,-1.28139 4.07842,-2.21167 2.27191,-0.93028 4.10948,-1.95783 4.07835,-2.28601 -0.12785,-1.34747 2.16763,-0.67962 3.07312,0.89398 0.53643,0.93251 1.20595,1.67531 1.49089,1.64828 0.28496,-0.027 1.15709,1.17609 1.92903,2.67631 0.77195,1.5002 1.72098,2.70014 2.11411,2.66286 0.39294,-0.0373 0.75878,0.3905 0.81218,0.95331 0.0533,0.56256 0.86392,1.45745 1.79928,1.98879 0.93557,0.53107 1.7246,1.24337 1.75674,1.58218 0.0911,0.96164 5.39876,5.26609 6.38897,5.17215 0.48744,-0.0462 0.91668,0.23401 0.95234,0.60993 0.0358,0.37614 0.75285,0.9662 1.59227,1.31805 1.69568,0.71049 6.31949,-0.87651 6.20067,-2.12899 -0.0361,-0.37993 0.85989,-1.11283 1.99078,-1.63136 1.13085,-0.51877 2.03689,-1.16473 2.0111,-1.43645 -0.0258,-0.27196 1.32973,-1.22524 3.01545,-2.11515 1.68569,-0.8899 3.04126,-1.86563 3.01235,-2.17041 -0.0288,-0.3048 0.56455,-0.81758 1.32078,-1.13893 1.03969,-0.44193 1.31635,-1.20298 1.13326,-3.13286 -0.36187,-3.81418 -2.5638,-11.38997 -3.29152,-11.32092 -0.34992,0.0333 -0.6931,-0.53336 -0.76193,-1.25874 -0.0688,-0.7251 -0.99467,-2.37113 -2.05922,-3.65882 -1.06457,-1.28768 -2.4603,-3.45719 -3.10249,-4.81594 -0.64217,-1.35875 -1.39033,-2.44608 -1.65637,-2.42084 -0.26603,0.0253 -0.7118,-0.5951 -0.99809,-1.37636 -0.38476,-1.05251 -0.0937,-1.63192 1.13179,-2.23597 0.90962,-0.44842 1.62811,-1.10504 1.59452,-1.45898 -0.0336,-0.35395 0.47952,-0.89555 1.13825,-1.20694 1.86938,-0.88348 4.62338,-2.9852 3.83223,-2.93398 -0.38986,0.037 0.16094,-0.64947 1.22915,-1.50869 1.06827,-0.85947 2.17783,-2.09374 2.46154,-2.73669 0.28397,-0.6432 0.86009,-1.20306 1.28327,-1.24321 0.42316,-0.0402 1.45047,-0.95949 2.28185,-2.04679 1.9041,-2.49027 3.46784,-2.22809 7.96366,1.33834 4.7082,3.73439 5.73279,4.37958 9.06406,5.67728 1.62393,0.63265 3.15266,1.37222 3.39765,1.64268 0.24476,0.2705 2.20112,0.83056 4.34744,1.25249 3.92842,0.77211 7.17201,-0.0377 7.00922,-1.75377 -0.0764,-0.80476 5.75976,-7.74012 6.57867,-7.8178 0.29914,-0.0284 0.50165,-0.4762 0.45283,-0.99081 -0.0487,-0.51435 0.73666,-2.0515 1.74415,-3.42086 1.16964,-1.59024 1.65219,-2.97409 1.3396,-3.83151 -0.26981,-0.73825 -0.72085,-1.32414 -1.00295,-1.29739 -0.28187,0.0268 -1.06616,-1.2157 -1.74636,-2.76656 -0.68016,-1.55064 -1.67196,-2.93975 -2.19925,-3.08759 -0.52728,-0.14785 -0.99875,-0.71099 -1.04997,-1.25088 -0.0512,-0.53964 -0.77035,-1.31769 -1.59625,-1.73068 -0.8259,-0.41296 -1.53155,-1.07298 -1.59252,-1.46436 -0.1504,-1.17345 -2.78546,-3.46594 -5.5063,-4.78984 -1.40298,-0.68318 -2.07644,-1.3079 -1.49412,-1.38936 0.59907,-0.0831 0.33228,-0.3606 -0.61326,-0.64017 l -2.23693,-1.02392 11.97228,-22.80944 c 0.16922,-0.32215 1.8655,1.00146 4.0688,1.42132 2.20333,0.41987 4.03278,1.0313 4.06362,1.35639 0.0636,0.66961 7.19982,1.53556 10.24962,1.24622 1.10458,-0.10476 2.03809,0.13017 2.07508,0.52007 0.0371,0.38984 1.60843,0.56522 3.49179,0.38656 2.9272,-0.27771 3.53788,-0.5969 4.20481,-2.18857 0.42924,-1.02412 1.00758,-1.88058 1.28948,-1.90731 0.28162,-0.0268 0.64387,-0.89489 0.80079,-1.92489 0.15714,-1.02978 1.03978,-3.96284 1.96246,-6.51497 0.92243,-2.55256 1.64373,-5.00716 1.60109,-5.45657 -0.0427,-0.44963 0.23709,-0.84527 0.62693,-0.88227 0.38986,-0.037 0.61901,-1.04374 0.50589,-2.2362 -0.11317,-1.19248 -0.45689,-1.97557 -0.76864,-1.73858 -0.31152,0.23696 -1.0683,-0.31954 -1.67409,-1.23187 -0.60557,-0.91259 -1.28665,-1.6399 -1.5182,-1.61793 -0.23062,0.0218 -1.79839,-0.95157 -3.48227,-2.16095 -1.68394,-1.20962 -3.42591,-2.17931 -3.87152,-2.13704 -0.44561,0.0423 -1.01934,-0.35197 -1.27539,-0.86456 -0.25463,-0.51272 -1.96787,-1.23011 -3.80463,-1.58819 -1.83698,-0.35806 -3.35678,-0.85572 -3.38066,-1.10736 -0.024,-0.25187 -1.53297,-0.86926 -3.35085,-1.37265 -2.32914,-0.64538 -3.3424,-1.31452 -3.43325,-2.27213 -0.071,-0.74758 0.13539,-1.38741 0.45407,-1.41763 0.3185,-0.0303 0.89904,-2.57672 1.29333,-5.66279 0.39407,-3.08582 0.9437,-6.27933 1.21776,-7.09205 0.27382,-0.8127 0.62376,-2.93455 0.77959,-4.71945 l 0.28308,-3.24799 11.18327,-1.09661 c 7.20648,-0.7075 11.3287,-1.38084 11.59445,-1.90407 0.22701,-0.4466 1.75243,-1.16684 3.38803,-1.60236 3.48955,-0.92898 4.24549,-2.26107 3.8226,-6.71863 -0.16579,-1.74749 -0.0364,-3.31169 0.28527,-3.47334 0.32154,-0.16162 0.54113,-3.07691 0.48894,-6.48156 -0.0791,-5.17844 -0.29279,-6.32573 -1.30477,-7.02644 -0.66524,-0.46091 -1.62639,-1.13447 -2.13843,-1.49331 -0.512,-0.3586 -3.06362,-1.06501 -5.66852,-1.57168 -2.60493,-0.50671 -4.92568,-1.13773 -5.15339,-1.40222 -0.22773,-0.26447 -3.87139,-0.54209 -8.10119,-0.61595 l -7.6917,-0.13324 -0.27554,-2.55784 c -0.15257,-1.40686 -0.93065,-6.68099 -1.73233,-11.71862 -0.80223,-5.03759 -1.35398,-9.52709 -1.22995,-9.9787 0.12502,-0.45172 2.56225,-1.45357 5.41706,-2.22529 2.85482,-0.77173 5.16396,-1.67653 5.13222,-2.0111 -0.0316,-0.33479 0.38341,-0.65152 0.92354,-0.70278 1.57285,-0.14921 8.01765,-3.07208 7.96626,-3.61386 -0.0256,-0.27149 1.13539,-1.17012 2.58487,-1.99662 3.91311,-2.23149 4.31215,-3.78634 2.66522,-10.38063 -0.75775,-3.034217 -1.62558,-5.651347 -1.92985,-5.817977 -0.30401,-0.16664 -1.01227,-2.03211 -1.57174,-4.14251 -0.85188,-3.2146 -1.28,-3.85182 -2.63406,-3.91408 -0.88893,-0.0421 -1.64068,-0.37255 -1.67511,-0.73548 -0.0795,-0.83831 -17.60456,0.7837 -17.84587,1.65008 -0.0978,0.35139 -2.30778,1.07186 -4.91315,1.5982 -4.48913,0.90675 -4.74364,0.87618 -4.87616,-0.52065 -0.0768,-0.8109 -0.4328,-1.44439 -0.78842,-1.41064 -0.35557,0.0337 -0.98057,-1.19495 -2.37382,-4.41682 -1.39325,-3.22188 -2.49357,-5.11802 -3.38834,-7.19663 -0.89497,-2.07858 -1.88064,-3.91496 -2.1972,-4.0804 -0.31657,-0.16547 -0.87126,-0.99769 -1.22807,-1.84876 -0.52409,-1.24982 -0.31096,-1.71835 1.10623,-2.41661 0.96451,-0.47558 1.72847,-1.12663 1.69747,-1.4534 -0.0311,-0.32677 1.01825,-1.14056 2.33192,-1.80541 1.31369,-0.66485 2.37042,-1.40073 2.34822,-1.63464 -0.0222,-0.23391 0.87674,-1.0836 1.99416,-1.89504 2.48948,-1.80818 9.10335,-9.25755 9.01823,-10.15468 -0.034,-0.35819 0.43068,-1.0848 1.02614,-1.61332 0.82997,-0.73626 0.90771,-1.55814 0.34636,-3.50981 -0.40307,-1.40147 -0.98875,-2.52345 -1.30156,-2.49377 -0.31307,0.0297 -1.29566,-1.24518 -2.18319,-2.83287 -0.88752,-1.58771 -2.04654,-3.09869 -2.57441,-3.36304 -0.52814,-0.26484 -0.99968,-0.92202 -1.05068,-1.45954 -0.051,-0.53752 -0.55074,-1.36129 -1.10877,-1.82828 -0.55805,-0.46676 -1.28027,-1.39332 -1.60763,-2.05959 -0.32738,-0.66626 -1.18129,-1.36814 -1.89659,-1.55774 -0.71532,-0.18961 -1.567,-0.66295 -1.89305,-1.054 -0.19909,-0.23882 -0.34169,-0.34429 -0.42909,-0.31549 z"
           id="path4627"
           inkscape:connector-curvature="0"
           sodipodi:nodetypes="cccccccccsccccccccsscccccccsccccsscccscccccscccccccccccccccssccscccsccccccccscccccccccscccscccsccccccscccccccccccccccccccccccccccccsccccccccccccccccscccccccscccccccccccccscccccccccscccscccccccccccscccsccccccccccsccscscccccccccccsccccccccccccscccccccscccscccccscccccccccccccccccccscccccccccccscccccccccccccscccccsscccccscsccsccc" />
        <path
           inkscape:connector-curvature="0"
           id="path4629"
           d="m 638.73574,288.73681 3.68493,5.79059 4.47455,-1.57925 4.47455,-8.42269 z"
           style="fill:#713737;fill-opacity:1;fill-rule:evenodd;stroke:none;stroke-width:1px;stroke-linecap:butt;stroke-linejoin:miter;stroke-opacity:1" />
        <path
           style="fill:#713737;fill-opacity:1;fill-rule:evenodd;stroke:none;stroke-width:1px;stroke-linecap:butt;stroke-linejoin:miter;stroke-opacity:1"
           d="m 291.82634,202.5133 c 12.45645,15.32204 45.45531,23.22451 63.69657,26.05768 4.34193,2.88352 5.5352,13.70321 10.90846,17.98599 2.41881,1.92793 2.7911,2.0491 2.32133,4.59934 l 3.35238,3.47236 10.26514,11.58119 27.90015,21.05671 c -14.91421,16.22263 -23.69916,34.48834 -44.74264,48.66788 -6.01063,-3.30412 -11.82189,-7.10667 -16.84826,-12.87146 l -1.05283,-48.43045 -7.10665,-5.52739 10.79157,-13.16044 -21.84634,-3.68493 -12.37082,-9.21231 5.52739,-10.00194 -12.63404,-2.10568 -16.84536,-3.68491 -9.73873,6.0538 -6.84344,-18.95105 5.26418,-5.52738 z"
           id="path4631"
           inkscape:connector-curvature="0"
           sodipodi:nodetypes="ccscccccccccccccccccc" />
        <path
           sodipodi:nodetypes="cccccccccccccccccccc"
           inkscape:connector-curvature="0"
           id="path4633"
           d="m 667.2877,206.0892 c -7.01113,13.77672 -42.07409,17.16684 -56.75507,16.69119 l -11.77278,20.70319 -1.48573,1.03412 -15.39772,20.92512 -32.50631,21.45152 c 14.91421,16.22263 23.69916,37.46621 44.74264,51.64575 6.01063,-3.30412 13.31082,-8.22337 18.33719,-13.98816 l -0.4361,-50.29162 4.47777,-9.70907 -0.26642,-9.24197 17.635,-3.68493 8.68589,-8.9491 -2.06826,-7.53953 8.64849,-1.67279 19.74066,-7.10663 8.0582,9.39936 8.05367,-19.01811 -18.12721,-10.34772 z"
           style="fill:#713737;fill-opacity:1;fill-rule:evenodd;stroke:none;stroke-width:1px;stroke-linecap:butt;stroke-linejoin:miter;stroke-opacity:1" />
        <path
           sodipodi:nodetypes="ccccc"
           style="fill:#713737;fill-opacity:1;fill-rule:evenodd;stroke:none;stroke-width:1px;stroke-linecap:butt;stroke-linejoin:miter;stroke-opacity:1"
           d="m 517.92283,328.48136 4.73776,14.21328 30.26903,-6.05381 10e-6,-12.37082 z"
           id="path4768"
           inkscape:connector-curvature="0" />
        <path
           inkscape:connector-curvature="0"
           id="path4635"
           d="m 620.57432,275.04994 4.73776,14.21328 30.26903,-6.05381 1e-5,-12.37082 z"
           style="fill:#713737;fill-opacity:1;fill-rule:evenodd;stroke:none;stroke-width:1px;stroke-linecap:butt;stroke-linejoin:miter;stroke-opacity:1"
           sodipodi:nodetypes="ccccc" />
        <path
           sodipodi:nodetypes="ccccc"
           style="fill:#713737;fill-opacity:1;fill-rule:evenodd;stroke:none;stroke-width:1px;stroke-linecap:butt;stroke-linejoin:miter;stroke-opacity:1"
           d="m 440.8026,328.74457 -4.73776,14.21328 -30.26903,-6.05381 3.1585,-11.58119 z"
           id="path4637"
           inkscape:connector-curvature="0" />
        <path
           sodipodi:nodetypes="ccccccccc"
           inkscape:connector-curvature="0"
           id="path4639"
           d="m 462.64895,340.85219 0.78962,7.10663 31.05866,-1.05283 1.31605,-5.7906 26.79707,-3.30267 0.20243,-11.01341 -87.31454,0.94008 1.69956,8.71643 z"
           style="fill:#713737;fill-opacity:1;fill-rule:evenodd;stroke:none;stroke-width:1px;stroke-linecap:butt;stroke-linejoin:miter;stroke-opacity:1" />
        <path
           sodipodi:nodetypes="cccccccccsccccccccsscccccccsccccsscccscccccscccccccccccccccssccscccsccccccccscccccccccscccscccsccccccscccccccccccccccccccccccccccccsccccccccccccccccscccccccscccccccccccccscccccccccscccscccccccccccscccsccccccccccsccscscccccccccccsccccccccccccscccccccscccscccccscccccccccccccccccccscccccccccccscccccccccccccscccccsscccccscsccsccc"
           inkscape:connector-curvature="0"
           id="path4641"
           d="m 644.92388,28.453933 c -0.0874,0.0288 -0.11783,0.19308 -0.0895,0.49125 0.0414,0.51388 -0.8413,0.97421 -2.09639,1.09327 -2.45795,0.23321 -8.50136,2.23238 -8.97268,2.9687 -0.17126,0.26775 -1.85183,1.24103 -3.73142,2.15768 -1.87965,0.91642 -3.73698,2.05384 -4.13152,2.53137 -0.39457,0.47729 -2.04692,1.45049 -3.6692,2.16202 l -33.61741,28.93222 c 26.26353,27.67092 36.9961,59.398757 35.85339,97.532037 -2.45323,79.00564 -68.48814,141.06394 -147.49381,138.61176 -79.00568,-2.4519 -141.06509,-68.48577 -138.61424,-147.49148 1.05565,-33.82698 22.95802,-76.846317 31.24412,-89.632047 -7.95446,-8.65948 -14.81112,-18.50256 -24.67619,-27.56063 -0.68165,0.0647 -2.8702,-3.34964 -4.3026,-5.01892 -0.59023,-0.68805 -2.16587,-1.68412 -3.49493,-2.21649 -1.32884,-0.53263 -2.43714,-1.23085 -2.46756,-1.55148 -0.0305,-0.32063 -1.46805,-1.05081 -3.19435,-1.6244 -1.72608,-0.57337 -3.3332,-1.26594 -3.57117,-1.53776 -0.69839,-0.79534 -6.61894,-2.09569 -8.66084,-1.90198 -1.91238,0.18143 -2.35836,0.6265 -7.70251,7.71098 -4.42975,5.87224 -4.64033,6.19895 -4.56318,7.01222 0.0387,0.40639 -0.24676,0.77063 -0.63661,0.80762 -0.38986,0.037 -0.6363,0.86229 -0.54384,1.83692 0.0924,0.97463 0.44703,1.74702 0.78373,1.71506 0.33692,-0.032 1.29303,1.32512 2.12955,3.01588 0.83627,1.69078 1.79354,3.04476 2.12481,3.01335 0.33124,-0.0314 0.85942,0.55647 1.17553,1.30033 0.73226,1.72257 12.33665,11.72368 13.47713,11.61548 1.3054,-0.12385 1.13957,1.07141 -0.44347,3.16145 -2.46969,3.26082 -3.31934,4.66493 -3.11182,5.1435 0.10997,0.25467 -0.23156,0.89074 -0.75874,1.42016 -0.5272,0.52921 -0.92836,1.25898 -0.89437,1.61742 0.034,0.35842 -0.51527,1.39688 -1.21556,2.30771 -0.70031,0.91087 -1.23189,2.07322 -1.18339,2.58451 0.0485,0.51128 -0.15277,0.951 -0.44766,0.97896 -0.29464,0.028 -0.86763,1.05123 -1.27435,2.26992 -0.40673,1.21866 -1.15655,2.25288 -1.66383,2.301 -1.27848,0.12125 -8.66727,-1.50749 -9.15365,-2.018 -0.6897,-0.72392 -5.29063,-1.61562 -7.33274,-1.42189 -1.07884,0.10239 -2.09598,-0.11033 -2.26128,-0.47068 -0.1653,-0.3603 -2.64172,-0.51237 -5.50296,-0.33866 -5.41378,0.33005 -6.44365,0.94979 -6.20272,3.74053 0.0598,0.68281 -0.1869,1.27034 -0.54652,1.30446 -0.35961,0.0341 -0.914,1.21406 -1.23489,2.62127 -0.32088,1.40722 -0.81114,2.57828 -1.08566,2.60432 -0.27456,0.026 -0.77426,1.47126 -1.11422,3.21498 -0.33999,1.74374 -1.00415,4.11715 -1.47062,5.271167 -0.68096,1.68549 -0.65639,2.19324 0.11634,2.58649 0.71048,0.35956 0.73759,0.5235 0.10422,0.58359 -0.47231,0.0448 0.59089,1.24351 2.36155,2.64897 1.77092,1.40544 3.51247,2.52764 3.86525,2.49418 0.35251,-0.0334 1.34508,0.68118 2.20745,1.58657 0.86257,0.90515 1.84438,1.4321 2.18433,1.17336 0.34044,-0.25638 0.85178,-0.006 1.12909,0.55546 0.27846,0.56028 2.12416,1.43023 4.10792,1.93813 1.98376,0.50794 3.62667,1.12908 3.65042,1.37955 0.0238,0.25021 1.36193,0.75436 2.97015,1.12102 2.30346,0.52525 2.95503,1.0217 3.07899,2.32827 0.0865,0.91226 -0.1241,1.68372 -0.47297,1.71683 -0.34897,0.0332 -0.9448,2.98529 -1.3212,6.56125 -0.37643,3.57596 -0.91064,6.52455 -1.18898,6.55095 -0.27833,0.0264 -0.55787,1.74222 -0.61957,3.8131 l -0.11193,3.76651 -12.72395,1.2071 c -8.44632,0.80132 -12.87037,1.48321 -13.1572,2.03061 -0.23754,0.4538 -1.25218,1.1121 -2.25406,1.4601 -2.12283,0.73756 -2.51618,2.30565 -2.01364,7.85396 0.2004,2.16425 0.10076,4.26336 -0.21915,4.66729 -0.51691,0.65268 -0.47795,6.57006 0.062,9.74822 0.11462,0.67596 1.30059,1.47151 2.76292,1.84842 1.41132,0.36414 2.58965,0.88807 2.61617,1.16758 0.0265,0.27977 2.33391,0.87592 5.12955,1.31994 2.79569,0.44424 5.1034,1.01853 5.12835,1.28153 0.025,0.26297 2.69623,0.44658 5.93738,0.4049 9.00721,-0.11598 8.02453,-1.34397 9.71735,12.13672 1.02818,8.18902 1.26336,12.04559 0.76399,12.62866 -0.39559,0.46165 -3.23246,1.50411 -6.30238,2.31531 -3.06992,0.8112 -5.72904,1.77672 -5.9134,2.14512 -0.18417,0.36816 -1.94714,1.32023 -3.91471,2.11363 -1.96736,0.79338 -3.5478,1.7478 -3.51213,2.12373 0.0355,0.37591 -1.13929,1.34809 -2.61149,2.15886 -1.5053,0.82893 -2.7832,2.11757 -2.91898,2.94792 -0.28966,1.78163 2.04051,10.93223 2.76612,10.86338 0.28234,-0.0269 0.91006,1.83018 1.39453,4.13461 1.02696,4.88419 2.32503,6.23825 5.67987,5.91998 1.3366,-0.12683 2.45677,0.0861 2.49376,0.47549 0.0399,0.4201 2.66986,0.46529 6.45024,0.1066 3.50866,-0.33288 6.34951,-0.88829 6.31677,-1.23328 -0.0327,-0.34495 1.75408,-1.02122 3.9701,-1.50276 2.21628,-0.48132 4.65599,-1.0868 5.41845,-1.34271 1.5681,-0.52877 3.22171,1.98763 5.47568,8.32624 0.71044,1.99785 1.53978,3.60867 1.84103,3.58009 0.30102,-0.0286 1.02854,1.23842 1.61774,2.81533 0.58917,1.57643 1.58602,3.29249 2.21514,3.81235 1.74671,1.44443 1.26843,3.76538 -0.9822,4.75633 -1.08562,0.478 -2.50273,1.44214 -3.14578,2.14229 -1.99717,2.17512 -2.92496,3.00547 -4.6222,4.12295 -2.30375,1.51688 -9.05054,9.5886 -8.9443,10.70855 0.047,0.52167 -0.23227,0.77541 -0.61531,0.58526 -0.98312,-0.48532 -1.45783,2.30073 -0.69767,4.08885 0.34927,0.82176 1.28026,2.06464 2.06546,2.76208 0.78516,0.69723 1.71331,2.16248 2.06452,3.25608 0.35122,1.0936 0.9477,1.9597 1.32645,1.92376 0.37897,-0.036 1.2795,1.04088 2.00026,2.39074 0.72073,1.35011 2.1531,3.20276 3.18162,4.12053 1.86591,1.6651 1.88004,1.66576 7.28143,0.29315 2.97714,-0.75637 5.56685,-1.63271 5.75142,-1.94871 0.18527,-0.31629 2.11611,-1.3128 4.29203,-2.21702 2.17616,-0.90424 3.92979,-1.92522 3.89776,-2.26284 -0.0321,-0.33765 1.32518,-1.29565 3.01597,-2.13193 1.69077,-0.83651 3.05046,-1.79973 3.0185,-2.13663 -0.0708,-0.74712 2.03167,-1.02543 2.12627,-0.27937 0.0639,0.57017 2.2933,2.99498 5.77639,6.2875 1.19052,1.12532 2.39531,2.59582 2.68057,3.26561 0.28454,0.66984 0.77243,1.19273 1.08385,1.1632 0.6403,-0.0607 6.31966,5.78892 6.39541,6.58729 0.027,0.28494 -0.66965,1.34251 -1.5503,2.35248 -0.88093,1.01 -1.58528,2.16314 -1.54727,2.56363 0.0307,0.40117 -0.74003,1.66781 -1.71328,2.81269 -2.97846,3.50432 -3.80138,4.93376 -4.42812,7.68309 -0.33148,1.45375 -0.84569,2.66508 -1.14599,2.69357 -0.56115,0.0531 -2.2672,6.83176 -2.11728,8.41195 0.0461,0.4853 1.3363,1.85498 2.86731,3.04357 1.53098,1.18836 3.51391,2.81145 4.40612,3.61175 0.892,0.80055 1.91599,1.42916 2.28057,1.39458 0.36457,-0.0347 1.99436,1.14024 3.61938,2.61125 2.71698,2.45928 3.15535,2.61568 5.46489,1.95148 1.38152,-0.39736 2.48919,-1.00399 2.45676,-1.34588 -0.0325,-0.34213 1.02647,-1.09396 2.35187,-1.6753 1.32518,-0.58129 2.22269,-1.30043 1.99924,-1.5951 -0.22321,-0.29494 0.51428,-1.02189 1.63538,-1.616 1.99341,-1.0562 3.97935,-3.24609 9.62444,-10.60111 2.36276,-3.07852 2.90733,-3.46573 3.54895,-2.53747 0.41698,0.60294 1.14096,1.06031 1.60883,1.0164 0.76914,-0.0723 3.31458,1.4025 6.67641,3.86927 0.68497,0.50289 2.6179,1.37206 4.29525,1.92956 1.67713,0.55752 3.07612,1.2458 3.10358,1.53523 0.0275,0.28968 1.19933,0.82727 2.61064,1.19141 2.26199,0.58331 3.77539,2.40373 2.12691,2.56013 -0.33836,0.0322 -0.96545,2.00215 -1.39482,4.3742 -0.42911,2.37227 -1.10753,4.45369 -1.50588,4.62976 -0.39859,0.17608 -0.84448,2.8177 -0.99273,5.86877 -0.14797,3.05102 -0.52361,5.57062 -0.83571,5.60023 -0.31237,0.0296 -0.4165,1.64807 -0.23162,3.59732 0.40822,4.30278 1.73991,5.61237 6.94966,6.81074 2.03356,0.4677 5.01222,1.85176 5.23347,2.29922 0.0471,0.0956 0.53181,-0.24587 1.26424,-0.86249 -0.1161,0.16596 -0.45308,0.59312 -0.45083,0.61674 0.0232,0.24478 1.51481,0.71104 3.31575,1.03582 1.80093,0.32477 3.30231,0.86495 3.33449,1.20425 0.0322,0.33928 0.4884,0.57757 1.01245,0.52786 1.05117,-0.0998 8.26733,-8.24947 8.17418,-9.2312 -0.0322,-0.33811 0.50458,-1.23078 1.19356,-1.98465 0.68923,-0.75365 1.66972,-2.99153 2.17589,-4.96868 0.50615,-1.9774 1.16075,-3.61494 1.45846,-3.64316 0.29767,-0.0282 0.76597,-1.37093 1.03984,-2.98227 0.27412,-1.61113 0.82099,-2.77267 1.21438,-2.57875 0.39343,0.19394 0.68461,0.0151 0.64547,-0.39726 -0.0392,-0.41277 0.72535,-0.82363 1.69998,-0.9161 0.97463,-0.0924 1.80244,0.13575 1.83796,0.51029 0.0354,0.37474 2.01338,0.89689 4.39833,1.15814 2.38495,0.26128 4.35903,0.68742 4.38339,0.94425 0.0243,0.25658 2.44203,0.64258 5.37159,0.86218 l 5.32844,0.39802 1.00082,11.64314 c 0.63748,7.41314 1.28626,11.80278 1.78826,12.08009 0.43374,0.23968 1.21477,1.6834 1.73507,3.20749 0.71572,2.09607 1.33687,2.79364 2.5592,2.84935 0.88915,0.042 1.64363,0.35313 1.67627,0.69713 0.0326,0.34427 2.06628,0.55086 4.51597,0.45912 2.4499,-0.0918 6.77907,-0.33063 9.62106,-0.52397 4.88285,-0.33214 5.20301,-0.45262 5.80714,-2.19879 0.35149,-1.01674 0.87781,-1.8708 1.17409,-1.89891 0.29628,-0.0281 0.95087,-3.08542 1.10335,-4.33288 0.0323,-0.26984 0.0457,-0.48733 0.002,-0.69301 l 0.65169,-2.37558 c 0.16114,-1.34652 0.53518,-2.63614 0.82754,-2.86414 0.29212,-0.22796 0.57733,-3.79639 0.63927,-7.92542 0.062,-4.12901 0.1679,-7.55371 0.2289,-7.61197 0.43907,-0.39257 23.82467,-2.95286 24.37396,-2.66097 0.38211,0.20288 1.48926,3.18544 2.45861,6.6306 0.96935,3.44518 2.09823,6.3459 2.51009,6.44033 0.41161,0.0944 0.79339,0.64886 0.84899,1.23504 0.13228,1.39425 5.9014,9.7853 7.42542,10.79933 0.64992,0.43278 2.12839,0.54571 3.28024,0.24809 1.15185,-0.29761 3.42691,-0.87672 5.05944,-1.28908 1.63278,-0.41238 2.94582,-0.99331 2.91783,-1.2884 -0.0281,-0.29511 1.76248,-0.94105 3.97752,-1.433 4.90847,-1.09002 6.42457,-2.02049 6.25152,-3.84454 -0.0727,-0.76575 0.18546,-1.42245 0.5753,-1.45944 0.89751,-0.0851 -0.63174,-16.88982 -1.5594,-17.13557 -0.36461,-0.0965 -1.09203,-2.30883 -1.61977,-4.91383 -0.83055,-4.10061 -0.80331,-4.75159 0.18871,-4.84571 0.63014,-0.0597 1.11594,-0.39081 1.08292,-0.73861 -0.0331,-0.34781 2.11906,-1.39649 4.78459,-2.32404 2.66551,-0.92779 4.82727,-1.91993 4.80014,-2.20607 -0.0271,-0.28611 1.80651,-1.28139 4.07842,-2.21167 2.27191,-0.93028 4.10948,-1.95783 4.07835,-2.28601 -0.12785,-1.34747 2.16763,-0.67962 3.07312,0.89398 0.53643,0.93251 1.20595,1.67531 1.49089,1.64828 0.28496,-0.027 1.15709,1.17609 1.92903,2.67631 0.77195,1.5002 1.72098,2.70014 2.11411,2.66286 0.39294,-0.0373 0.75878,0.3905 0.81218,0.95331 0.0533,0.56256 0.86392,1.45745 1.79928,1.98879 0.93557,0.53107 1.7246,1.24337 1.75674,1.58218 0.0911,0.96164 5.39876,5.26609 6.38897,5.17215 0.48744,-0.0462 0.91668,0.23401 0.95234,0.60993 0.0358,0.37614 0.75285,0.9662 1.59227,1.31805 1.69568,0.71049 6.31949,-0.87651 6.20067,-2.12899 -0.0361,-0.37993 0.85989,-1.11283 1.99078,-1.63136 1.13085,-0.51877 2.03689,-1.16473 2.0111,-1.43645 -0.0258,-0.27196 1.32973,-1.22524 3.01545,-2.11515 1.68569,-0.8899 3.04126,-1.86563 3.01235,-2.17041 -0.0288,-0.3048 0.56455,-0.81758 1.32078,-1.13893 1.03969,-0.44193 1.31635,-1.20298 1.13326,-3.13286 -0.36187,-3.81418 -2.5638,-11.38997 -3.29152,-11.32092 -0.34992,0.0333 -0.6931,-0.53336 -0.76193,-1.25874 -0.0688,-0.7251 -0.99467,-2.37113 -2.05922,-3.65882 -1.06457,-1.28768 -2.4603,-3.45719 -3.10249,-4.81594 -0.64217,-1.35875 -1.39033,-2.44608 -1.65637,-2.42084 -0.26603,0.0253 -0.7118,-0.5951 -0.99809,-1.37636 -0.38476,-1.05251 -0.0937,-1.63192 1.13179,-2.23597 0.90962,-0.44842 1.62811,-1.10504 1.59452,-1.45898 -0.0336,-0.35395 0.47952,-0.89555 1.13825,-1.20694 1.86938,-0.88348 4.62338,-2.9852 3.83223,-2.93398 -0.38986,0.037 0.16094,-0.64947 1.22915,-1.50869 1.06827,-0.85947 2.17783,-2.09374 2.46154,-2.73669 0.28397,-0.6432 0.86009,-1.20306 1.28327,-1.24321 0.42316,-0.0402 1.45047,-0.95949 2.28185,-2.04679 1.9041,-2.49027 3.46784,-2.22809 7.96366,1.33834 4.7082,3.73439 5.73279,4.37958 9.06406,5.67728 1.62393,0.63265 3.15266,1.37222 3.39765,1.64268 0.24476,0.2705 2.20112,0.83056 4.34744,1.25249 3.92842,0.77211 7.17201,-0.0377 7.00922,-1.75377 -0.0764,-0.80476 5.75976,-7.74012 6.57867,-7.8178 0.29914,-0.0284 0.50165,-0.4762 0.45283,-0.99081 -0.0487,-0.51435 0.73666,-2.0515 1.74415,-3.42086 1.16964,-1.59024 1.65219,-2.97409 1.3396,-3.83151 -0.26981,-0.73825 -0.72085,-1.32414 -1.00295,-1.29739 -0.28187,0.0268 -1.06616,-1.2157 -1.74636,-2.76656 -0.68016,-1.55064 -1.67196,-2.93975 -2.19925,-3.08759 -0.52728,-0.14785 -0.99875,-0.71099 -1.04997,-1.25088 -0.0512,-0.53964 -0.77035,-1.31769 -1.59625,-1.73068 -0.8259,-0.41296 -1.53155,-1.07298 -1.59252,-1.46436 -0.1504,-1.17345 -2.78546,-3.46594 -5.5063,-4.78984 -1.40298,-0.68318 -2.07644,-1.3079 -1.49412,-1.38936 0.59907,-0.0831 0.33228,-0.3606 -0.61326,-0.64017 l -2.23693,-1.02392 11.97228,-22.80944 c 0.16922,-0.32215 1.8655,1.00146 4.0688,1.42132 2.20333,0.41987 4.03278,1.0313 4.06362,1.35639 0.0636,0.66961 7.19982,1.53556 10.24962,1.24622 1.10458,-0.10476 2.03809,0.13017 2.07508,0.52007 0.0371,0.38984 1.60843,0.56522 3.49179,0.38656 2.9272,-0.27771 3.53788,-0.5969 4.20481,-2.18857 0.42924,-1.02412 1.00758,-1.88058 1.28948,-1.90731 0.28162,-0.0268 0.64387,-0.89489 0.80079,-1.92489 0.15714,-1.02978 1.03978,-3.96284 1.96246,-6.51497 0.92243,-2.55256 1.64373,-5.00716 1.60109,-5.45657 -0.0427,-0.44963 0.23709,-0.84527 0.62693,-0.88227 0.38986,-0.037 0.61901,-1.04374 0.50589,-2.2362 -0.11317,-1.19248 -0.45689,-1.97557 -0.76864,-1.73858 -0.31152,0.23696 -1.0683,-0.31954 -1.67409,-1.23187 -0.60557,-0.91259 -1.28665,-1.6399 -1.5182,-1.61793 -0.23062,0.0218 -1.79839,-0.95157 -3.48227,-2.16095 -1.68394,-1.20962 -3.42591,-2.17931 -3.87152,-2.13704 -0.44561,0.0423 -1.01934,-0.35197 -1.27539,-0.86456 -0.25463,-0.51272 -1.96787,-1.23011 -3.80463,-1.58819 -1.83698,-0.35806 -3.35678,-0.85572 -3.38066,-1.10736 -0.024,-0.25187 -1.53297,-0.86926 -3.35085,-1.37265 -2.32914,-0.64538 -3.3424,-1.31452 -3.43325,-2.27213 -0.071,-0.74758 0.13539,-1.38741 0.45407,-1.41763 0.3185,-0.0303 0.89904,-2.57672 1.29333,-5.66279 0.39407,-3.08582 0.9437,-6.27933 1.21776,-7.09205 0.27382,-0.8127 0.62376,-2.93455 0.77959,-4.71945 l 0.28308,-3.24799 11.18327,-1.09661 c 7.20648,-0.7075 11.3287,-1.38084 11.59445,-1.90407 0.22701,-0.4466 1.75243,-1.16684 3.38803,-1.60236 3.48955,-0.92898 4.24549,-2.26107 3.8226,-6.71863 -0.16579,-1.74749 -0.0364,-3.31169 0.28527,-3.47334 0.32154,-0.16162 0.54113,-3.07691 0.48894,-6.48156 -0.0791,-5.17844 -0.29279,-6.32573 -1.30477,-7.02644 -0.66524,-0.46091 -1.62639,-1.13447 -2.13843,-1.49331 -0.512,-0.3586 -3.06362,-1.06501 -5.66852,-1.57168 -2.60493,-0.50671 -4.92568,-1.13773 -5.15339,-1.40222 -0.22773,-0.26447 -3.87139,-0.54209 -8.10119,-0.61595 l -7.6917,-0.13324 -0.27554,-2.55784 c -0.15257,-1.40686 -0.93065,-6.68099 -1.73233,-11.71862 -0.80223,-5.03759 -1.35398,-9.52709 -1.22995,-9.9787 0.12502,-0.45172 2.56225,-1.45357 5.41706,-2.22529 2.85482,-0.77173 5.16396,-1.67653 5.13222,-2.0111 -0.0316,-0.33479 0.38341,-0.65152 0.92354,-0.70278 1.57285,-0.14921 8.01765,-3.07208 7.96626,-3.61386 -0.0256,-0.27149 1.13539,-1.17012 2.58487,-1.99662 3.91311,-2.23149 4.31215,-3.78634 2.66522,-10.38063 -0.75775,-3.034217 -1.62558,-5.651347 -1.92985,-5.817977 -0.30401,-0.16664 -1.01227,-2.03211 -1.57174,-4.14251 -0.85188,-3.2146 -1.28,-3.85182 -2.63406,-3.91408 -0.88893,-0.0421 -1.64068,-0.37255 -1.67511,-0.73548 -0.0795,-0.83831 -17.60456,0.7837 -17.84587,1.65008 -0.0978,0.35139 -2.30778,1.07186 -4.91315,1.5982 -4.48913,0.90675 -4.74364,0.87618 -4.87616,-0.52065 -0.0768,-0.8109 -0.4328,-1.44439 -0.78842,-1.41064 -0.35557,0.0337 -0.98057,-1.19495 -2.37382,-4.41682 -1.39325,-3.22188 -2.49357,-5.11802 -3.38834,-7.19663 -0.89497,-2.07858 -1.88064,-3.91496 -2.1972,-4.0804 -0.31657,-0.16547 -0.87126,-0.99769 -1.22807,-1.84876 -0.52409,-1.24982 -0.31096,-1.71835 1.10623,-2.41661 0.96451,-0.47558 1.72847,-1.12663 1.69747,-1.4534 -0.0311,-0.32677 1.01825,-1.14056 2.33192,-1.80541 1.31369,-0.66485 2.37042,-1.40073 2.34822,-1.63464 -0.0222,-0.23391 0.87674,-1.0836 1.99416,-1.89504 2.48948,-1.80818 9.10335,-9.25755 9.01823,-10.15468 -0.034,-0.35819 0.43068,-1.0848 1.02614,-1.61332 0.82997,-0.73626 0.90771,-1.55814 0.34636,-3.50981 -0.40307,-1.40147 -0.98875,-2.52345 -1.30156,-2.49377 -0.31307,0.0297 -1.29566,-1.24518 -2.18319,-2.83287 -0.88752,-1.58771 -2.04654,-3.09869 -2.57441,-3.36304 -0.52814,-0.26484 -0.99968,-0.92202 -1.05068,-1.45954 -0.051,-0.53752 -0.55074,-1.36129 -1.10877,-1.82828 -0.55805,-0.46676 -1.28027,-1.39332 -1.60763,-2.05959 -0.32738,-0.66626 -1.18129,-1.36814 -1.89659,-1.55774 -0.71532,-0.18961 -1.567,-0.66295 -1.89305,-1.054 -0.19909,-0.23882 -0.34169,-0.34429 -0.42909,-0.31549 z"
           style="fill:none;fill-opacity:1;stroke:#000000;stroke-width:3.52900004;stroke-linecap:round;stroke-linejoin:round;stroke-miterlimit:4;stroke-dasharray:none;stroke-opacity:1" />
        <path
           sodipodi:nodetypes="cccccccc"
           style="fill:#3b65aa;fill-opacity:1;fill-rule:evenodd;stroke:none;stroke-width:1px;stroke-linecap:butt;stroke-linejoin:miter;stroke-opacity:1"
           d="m 412.77086,141.20819 12.23921,-5.92221 13.68687,13.16045 23.6888,4.73776 3.15851,4.73776 -2.63209,3.68493 -26.32089,-0.52642 z"
           id="path4643"
           inkscape:connector-curvature="0" />
        <path
           inkscape:connector-curvature="0"
           id="path4645"
           d="m 549.77112,142.12942 -11.05477,-7.36986 -13.68687,13.16045 -23.6888,4.73776 -3.15851,4.73776 2.63209,3.68493 26.32089,-0.52642 z"
           style="fill:#94413b;fill-opacity:1;fill-rule:evenodd;stroke:none;stroke-width:1px;stroke-linecap:butt;stroke-linejoin:miter;stroke-opacity:1" />
        <path
           inkscape:connector-curvature="0"
           id="path4647"
           d="m 569.775,12.630613 0,52.64179 -13.68686,16.31896 0,-11.05478 -17.89821,7.36985 -1.57926,-26.84731 z"
           style="fill:#94413b;fill-opacity:1;fill-rule:evenodd;stroke:none;stroke-width:1px;stroke-linecap:butt;stroke-linejoin:miter;stroke-opacity:1" />
        <path
           sodipodi:nodetypes="ccccccccscccccscccccccccccccccccccccccccccccccccccccccccccccccccccccccccccccccccccccccccccccccccccccccccccccccccccccccccccccccccccccccccccccccccccccccccccccccccccccccccccccccccccccccccccccccccccccccccccccccccccccccccccccccccccccccccccccccccccccccccccccccccccccccccccccccccccccccccccccccccccccccccccccccccccccccccccccccccccccccccccccccccccccccccccccccccccccccccccccccccccccccccccccccccccc"
           inkscape:connector-curvature="0"
           id="path4649"
           d="m 394.14877,6.8667328 c -1.44447,-0.17648 -2.83653,0.68829 -3.24335,3.5999202 l -6.59749,59.1237 14.05922,25.68694 c -8.43469,20.171387 -12.33567,33.213057 -12.52216,52.596637 l 7.78406,-4.28083 c -6.18909,5.70564 -10.04348,49.0047 9.73205,72.40126 l 9.3614,-11.14827 c -7.97983,13.78408 -8.2724,25.79328 7.37712,38.39438 16.40775,13.21174 50.085,16.59358 61.08983,42.75787 l -0.012,0.43113 c 0.0301,-0.0784 0.0661,-0.15141 0.0966,-0.2297 0.13926,0.33614 0.29135,0.6596 0.42305,1.00327 l -0.0543,-1.87554 c 10.9807,-26.23711 45.47856,-28.85807 61.90771,-42.08703 15.64952,-12.6011 15.35694,-24.6103 7.37711,-38.39438 l 9.36141,11.14827 c 19.77553,-23.39656 15.92113,-66.69562 9.73205,-72.40126 l 7.78406,4.28083 c -0.18649,-19.38358 -4.08747,-32.42525 -12.52217,-52.596637 l 14.05923,-25.68694 -6.59749,-59.1237 C 572.20227,6.5844828 569.90663,6.3415228 568.07306,7.3542428 545.13095,18.147463 528.07973,34.830233 512.41031,52.896103 c -8.99525,1.18676 -20.19097,0.60637 -29.41376,0.46537 l -0.008,-0.0142 -0.006,0.0142 c -0.0738,-9.2e-4 -0.15418,-0.006 -0.22763,-0.006 l 0,-0.0242 c -0.19865,0.002 -0.43528,0.009 -0.63659,0.012 -0.20135,-0.002 -0.43136,-0.0103 -0.63053,-0.012 l 0.006,0.0242 c -9.31497,0.13377 -21.17544,0.73839 -30.25383,-0.4593 -15.66942,-18.06587 -32.72266,-34.74863 -55.66477,-45.5418602 -0.45839,-0.25319 -0.94477,-0.4287 -1.42627,-0.48752 z m 172.92098,3.1748602 c 0.17831,0.27397 0.33682,0.54793 0.4996,0.82191 l -32.56647,40.74135 -2.7639,28.56359 c -6.52591,-7.86709 -12.22979,-16.71126 -17.36099,-26.23885 14.40018,-18.68553 31.73435,-33.7703 52.19176,-43.888 z m -170.48947,0.002 c 20.45797,10.11799 37.79137,25.20178 52.19178,43.88795 -5.13099,9.52698 -10.83544,18.37021 -17.361,26.23691 l -2.76389,-28.56359 -32.56648,-40.74137 c 0.16252,-0.27348 0.32162,-0.5464 0.49959,-0.8199 z m 172.58053,3.91619 c 0.0396,0.0888 0.0779,0.17717 0.11684,0.26592 l 0.40693,50.17729 -12.2784,15.4814 -0.79573,-10.25175 -17.48588,7.93919 -0.13096,-26.24298 z m -174.67158,0.002 30.16518,37.36704 -0.12893,26.24298 -17.48589,-7.93919 -0.79574,10.25176 -12.27839,-15.4814 0.40693,-50.17527 c 0.0389,-0.0888 0.0772,-0.17717 0.11684,-0.26592 z m -2.18976,5.23771 -0.67285,46.85532 14.34931,17.27442 -1.3336,17.179637 -4.07132,-4.865037 -0.0383,0.0383 -13.17284,-27.97537 4.6797,-47.89281 c 0.0923,-0.20482 0.17116,-0.40963 0.25987,-0.61443 z m 179.05111,0 c 0.0885,0.20438 0.16769,0.40803 0.25987,0.61241 l 4.67969,47.89277 -13.17486,27.97547 -0.0363,-0.0363 -4.0713,4.865027 -1.33361,-17.179637 14.34932,-17.27442 -0.67284,-46.85531 z m -87.62689,35.48342 20.79774,0.0585 -12.13538,15.68293 z m -4.03303,0.002 -8.60999,15.77555 -11.96212,-15.71717 20.57211,-0.0584 z m -22.20587,0.0624 12.69942,17.35704 -17.67928,32.393177 -13.12046,-15.884377 -30.13497,53.954507 -0.008,0.004 0.004,0.004 -0.24174,0.43309 c 0.18765,-0.0686 0.3677,-0.14367 0.55399,-0.2135 l 12.44561,8.78125 -19.09145,29.8045 37.0447,29.84895 -18.84165,29.93948 c -10.36115,-8.49902 -15.09118,-20.13484 -5.81789,-40.10666 L 403.04889,212.761 c -12.48211,-21.32309 -16.9493,-42.96735 -7.84448,-70.8763 l -6.88155,1.65183 c 0.48635,-8.21098 4.40353,-28.82104 11.39605,-45.207397 l 6.21877,8.047907 c 15.62286,-12.143077 31.06033,-25.497667 44.54471,-51.541077 l -0.0443,-0.0685 0.0805,-0.002 c -0.0124,0.024 -0.0238,0.0466 -0.0362,0.0705 l 0.0463,0.0704 0.0463,-0.141 6.90975,-0.0181 z m 49.00279,0 6.58743,0.0181 0.0463,0.141 0.0463,-0.0704 c -0.0124,-0.024 -0.024,-0.0466 -0.0363,-0.0705 l 0.0805,0.002 -0.0443,0.0685 c 13.48438,26.0434 28.91984,39.398 44.5427,51.541067 l 6.21876,-8.049957 c 6.99267,16.386457 10.91172,36.996317 11.39806,45.207497 l -6.88154,-1.65193 c 9.10482,27.90894 4.63763,49.55321 -7.84448,70.87629 l -12.24822,-11.69886 c 9.25607,19.93478 4.45379,31.45777 -6.00121,39.81869 l -18.65832,-29.64945 37.0447,-29.84896 -19.09145,-29.8045 12.4456,-8.78124 c 0.18583,0.0696 0.36481,0.14512 0.55198,0.2135 l -0.24174,-0.43309 0.006,-0.004 -0.0103,-0.004 -30.13498,-53.954507 -13.12449,15.888397 -17.63699,-32.050737 12.98551,-17.7035 z m -24.76228,2.0085 9.21232,15.54193 -9.31303,12.03262 -0.002,-0.0201 -9.08944,-11.94206 9.19217,-15.61238 z m -74.13575,14.25266 16.92988,7.91289 0.0678,0.0421 2.17237,1.00556 3.46292,1.61758 c -6.97564,8.1559 -14.87671,15.21127 -24.00885,20.799727 l -0.45328,-0.5418 1.82918,-30.836017 z m 148.47095,0 1.82916,30.836017 -0.45326,0.5418 C 548.30425,96.797833 540.40317,89.742463 533.42754,81.586563 l 3.46294,-1.61758 2.24214,-0.70312 -0.002,-0.3445 z m -84.48829,2.99154 10.18415,14.44052 0.31678,-0.47318 c 0,0 0.13306,-0.12203 0.13326,-0.10223 l 9.92781,-13.54892 18.35616,30.968977 -8.51733,10.3122 -9.49435,26.83729 0.71918,1.97817 -11.2428,-24.90076 -0.17132,0.35612 -0.0536,-0.29513 -11.06457,24.25361 0.50564,-1.39201 -9.49637,-26.83729 -8.51933,-10.3122 18.41659,-31.285217 z m -30.42304,20.42296 15.38074,17.425527 -3.06205,21.96411 c -0.18057,-0.10891 -0.35965,-0.20422 -0.53988,-0.30819 l -0.13095,-0.22763 c -0.14783,-0.0322 -0.2604,-0.0461 -0.40491,-0.0766 -15.02163,-8.28926 -28.84107,0.0474 -40.76953,7.67732 z m 81.35171,0 29.52657,46.454497 c -11.92845,-7.62998 -25.7479,-15.96658 -40.76952,-7.67732 -0.14452,0.0306 -0.25709,0.0444 -0.40491,0.0766 l -0.13297,0.22763 c -0.18023,0.10397 -0.3593,0.19928 -0.53988,0.30819 l -3.06003,-21.96411 z m -65.45526,18.009727 3.12248,3.53944 10.0282,27.5826 -4.75825,9.75017 -9.23719,-20.73443 z m 49.5588,0 0.95156,20.84149 -9.34398,20.03072 -4.75825,-9.75017 10.02818,-27.5826 z m -24.82472,9.24652 13.91216,29.5911 1.16438,3.20299 0.95689,46.14425 -16.04955,-10.06239 0.004,0.0303 -0.0103,-0.0303 -15.92061,10.06239 0.95688,-46.14425 1.18857,-3.26951 13.79732,-29.52458 z m -45.94077,11.24296 c 4.07656,8.34775 13.65189,16.19081 22.01853,9.11368 l -3.0439,-5.26801 9.2647,14.99797 c -13.50585,-1.86915 -30.16215,-0.21351 -31.95608,-18.05192 1.20691,-0.31973 2.44967,-0.57563 3.71675,-0.79172 z m 91.97217,0 c 1.26709,0.21609 2.50985,0.47199 3.71676,0.79172 -1.79388,17.83852 -18.45022,16.18277 -31.95607,18.05192 l 9.29089,-15.04222 -3.0701,5.31226 c 8.36665,7.07713 17.94197,-0.76593 22.01852,-9.11368 z m -74.75621,0.80183 c 0.13796,0.0339 0.27207,0.0614 0.41096,0.0967 l -0.0685,0.4956 z m 57.54027,0 -0.34449,0.5942 -0.0685,-0.49755 c 0.13969,-0.0355 0.27423,-0.0626 0.41298,-0.0967 z m -86.77676,2.91894 15.15914,14.14993 22.65913,3.28561 2.26229,3.65031 c -0.40981,0.89074 -0.86991,1.91814 -1.34972,3.00362 l -25.50764,-0.26993 -23.10636,-19.43598 c 3.37928,-1.45699 6.60959,-2.99959 9.88316,-4.38356 z m 116.01324,0 c 3.27401,1.38417 6.50339,2.92646 9.88317,4.38356 l -23.10637,19.43598 -25.50764,0.26993 c -0.47982,-1.08558 -0.94191,-2.11288 -1.35174,-3.00362 l 2.26431,-3.65031 22.65914,-3.28561 z m -40.45324,15.43519 -0.97301,1.62161 -0.012,-0.0261 0.98509,-1.59551 z m -35.0987,0.012 0.97704,1.58344 -0.012,0.0261 -0.96495,-1.60954 z m -40.36663,0.83401 11.86544,8.37228 -5.89444,10.45124 -19.67365,5.36466 z m 115.82188,0 13.70467,24.18818 -19.67566,-5.36466 -5.89242,-10.45124 z m -41.67403,5.33443 0.19741,0.69095 c 7.2172,14.94815 26.25859,61.09074 4.4037,74.04103 -5.67961,2.74276 -14.11409,-3.56224 -20.38878,-4.02494 -0.0436,-0.003 -0.061,0.0204 -0.0685,0.0543 -5.03383,0.39051 -15.85156,6.56256 -21.21877,3.97059 -21.85489,-12.95028 -2.81147,-59.09287 4.40573,-74.04102 l 0.1954,-0.68291 -1.02135,44.72201 17.46575,-11.06174 17.05275,11.06174 -1.02335,-44.73006 z m -35.8763,3.30985 c -4.524,10.35139 -11.30754,28.06139 -12.45568,43.84767 l -4.2929,-17.84254 -13.76108,-15.4129 5.62449,-10.4633 z m 39.28081,0 24.88516,0.12893 5.62449,10.4633 -13.76107,15.4129 -4.29492,17.84852 c -1.14684,-15.78773 -7.9291,-33.50092 -12.45366,-43.85365 z m -71.30538,11.55516 13.90008,15.41497 5.49355,21.10195 c -0.008,2.1168 0.11807,4.17264 0.37269,6.15834 l -3.3884,-0.6991 -37.16962,-33.94836 z m 103.32994,0 20.7917,8.0278 -37.16962,33.94836 -3.38839,0.6991 c 0.2543,-1.98313 0.37679,-4.03629 0.36865,-6.1503 l 5.49758,-21.10999 z m -52.57854,32.16358 c -13.45891,-0.0677 -19.94227,10.54644 -7.95124,12.83836 0.0898,4.1156 4.89277,6.5837 9.17606,6.96018 l 0,0.0604 c 0.18319,-0.002 0.36477,-0.0143 0.54593,-0.0243 0.15615,0.007 0.31351,0.0188 0.46736,0.0202 l -0.002,-0.0544 c 4.06504,-0.38441 7.45268,-2.85457 7.5423,-6.96213 12.34363,-2.35928 5.6899,-13.5355 -8.57373,-12.80215 -0.40691,-0.0208 -0.80951,-0.0342 -1.20467,-0.0362 z m -39.63335,7.00844 0.0886,0.0705 -0.10879,-0.0363 0.0201,-0.0342 z m 81.09385,0 0.0201,0.0342 -0.10878,0.0363 0.0886,-0.0705 z m -81.2812,0.30819 26.91579,54.36746 c -13.54644,-9.53842 -32.68172,-15.13999 -45.13496,-24.42592 l 18.21917,-29.94085 z m 81.46855,0 18.02779,29.6253 c -12.14151,8.82252 -30.53649,14.18727 -44.09145,23.01772 z m -77.92504,2.39528 1.49074,1.20068 3.97663,0.87021 c 1.27544,7.86432 4.92059,14.38242 12.31466,17.94115 l -0.32837,0.0423 c 3.77534,4.35602 11.26807,9.71508 19.91337,9.58502 l 0,0 c 0.0177,3e-4 0.0348,-3.2e-4 0.0524,0 0.0177,-3.2e-4 0.0348,3e-4 0.0524,0 l 0,0 c 8.64144,0.12985 15.6808,-5.2291 19.45608,-9.58502 l -0.32836,-0.0423 c 7.39405,-3.55873 11.03921,-10.07683 12.31465,-17.94115 l 3.97663,-0.87021 1.49073,-1.20068 -23.75503,51.04544 c -6.12306,4.18079 -11.13806,9.14844 -13.94237,15.59228 l -0.008,0.24981 c -2.5921,-5.64138 -6.8644,-10.16779 -12.07897,-14.03503 l -24.59708,-52.8525 z m 37.64101,14.69174 c 9.48684,2.13226 12.05199,4.88885 15.92263,5.40292 -2.25255,5.23053 -9.53729,8.69107 -16.09185,7.363 l 0,-0.0186 c -0.0172,0 -0.0351,0 -0.0524,0.0104 -0.0173,0 -0.0351,0 -0.0524,-0.0104 l 0,0.0165 c -6.55647,1.32796 -14.26288,-2.12794 -16.5431,-7.35487 3.19679,-0.37966 5.8038,-2.12782 11.251,-3.89611 1.58528,-0.51457 3.41448,-1.02936 5.56608,-1.51289 z"
           style="fill:#000000;fill-opacity:1;fill-rule:evenodd;stroke:#000000;stroke-width:0.92549205px;stroke-linecap:butt;stroke-linejoin:miter;stroke-opacity:1" />
        <g
           id="g4761"
           transform="matrix(1.1920542,0,0,1.1920542,2.9171399,-679.33131)">
          <path
             style="fill:#ffe291;fill-opacity:1;fill-rule:evenodd;stroke:#000000;stroke-width:3.0999999;stroke-linecap:round;stroke-linejoin:round;stroke-miterlimit:4;stroke-dasharray:none;stroke-opacity:1"
             d="m 507.56466,774.54375 c 6.41289,-17.2975 40.43808,-1.0411 55.53709,-28.4267 1.17347,8.7141 2.50914,17.3692 -1.82316,28.0854 6.3003,5.09903 13.5704,3.40943 20.511,4.02623 -8.95181,19.43398 -38.04948,17.6931 -62.11731,30.53218 z"
             id="path4550"
             inkscape:connector-curvature="0"
             sodipodi:nodetypes="cccccc" />
          <path
             sodipodi:nodetypes="cccccc"
             inkscape:connector-curvature="0"
             id="path4544"
             d="m 294.56313,775.06635 c -6.41289,-17.2975 -40.43808,-1.0411 -55.53709,-28.4267 -1.17347,8.7141 -2.50914,17.3692 1.82316,28.0854 -6.3003,5.09898 -13.5704,3.40938 -20.511,4.02618 8.95181,19.43398 38.04948,17.69308 62.11731,30.53218 z"
             style="fill:#ffe291;fill-opacity:1;fill-rule:evenodd;stroke:#000000;stroke-width:3.0999999;stroke-linecap:round;stroke-linejoin:round;stroke-miterlimit:4;stroke-dasharray:none;stroke-opacity:1" />
          <path
             sodipodi:nodetypes="ccsc"
             inkscape:connector-curvature="0"
             id="path4556"
             d="m 513.3896,793.56115 -5.21127,-16.3783 c 7.3742,3.493 21.76005,-7.6913 23.82295,-1.0701 2.53164,8.1256 -18.61168,17.4484 -18.61168,17.4484 z"
             style="fill:#ca995b;fill-opacity:1;fill-rule:evenodd;stroke:#000000;stroke-width:3.0999999;stroke-linecap:round;stroke-linejoin:round;stroke-miterlimit:4;stroke-dasharray:none;stroke-opacity:1" />
          <path
             style="fill:#ca995b;fill-opacity:1;fill-rule:evenodd;stroke:#000000;stroke-width:3.0999999;stroke-linecap:round;stroke-linejoin:round;stroke-miterlimit:4;stroke-dasharray:none;stroke-opacity:1"
             d="m 287.68536,794.2153 5.21127,-16.3783 c -7.3742,3.493 -21.76005,-7.69135 -23.82295,-1.0701 -2.53164,8.1256 18.61168,17.4484 18.61168,17.4484 z"
             id="path4546"
             inkscape:connector-curvature="0"
             sodipodi:nodetypes="ccsc" />
          <path
             sodipodi:nodetypes="csccscc"
             inkscape:connector-curvature="0"
             id="path4540"
             d="m 257.29283,811.05615 c 1.16194,23.5123 92.34723,34.8336 140.70433,35.3622 49.63145,0.5425 136.76276,-11.9715 145.17113,-33.1288 l -10.79478,-36.1067 c -2.99743,18.455 -88.89983,27.9659 -134.74859,27.5453 -43.85824,-0.4024 -134.00413,-8.0825 -128.42062,-28.662 z"
             style="fill:#ffe291;fill-opacity:1;fill-rule:evenodd;stroke:#000000;stroke-width:3.0999999;stroke-linecap:round;stroke-linejoin:round;stroke-miterlimit:4;stroke-dasharray:none;stroke-opacity:1" />
        </g>
        <g
           id="g4671"
           style="font-style:normal;font-variant:normal;font-weight:normal;font-stretch:normal;font-size:40px;line-height:125%;font-family:'8514oem';-inkscape-font-specification:'8514oem';letter-spacing:0px;word-spacing:0px;fill:#000000;fill-opacity:1;stroke:none;stroke-width:1px;stroke-linecap:butt;stroke-linejoin:miter;stroke-opacity:1"
           transform="matrix(1.3271381,0,0,1.3271381,32.942095,-863.74849)">
          <path
             id="path4673"
             style="font-style:normal;font-variant:normal;font-weight:500;font-stretch:normal;font-family:'Adobe Naskh';-inkscape-font-specification:'Adobe Naskh Medium'"
             d="m 237.87961,860.8204 c 0.47948,0.16838 1.12256,0.469 1.50574,0.75075 0.44493,0.28036 0.58251,0.62941 0.39665,1.43053 -0.32269,1.31079 -0.91282,3.09092 -1.92631,6.37562 -0.96166,3.11674 -1.69874,5.50561 -2.01386,6.32817 -0.38124,0.90436 -0.66001,1.14539 -1.22288,1.11479 -0.53707,0.0183 -1.25063,-0.12016 -1.9642,-0.25857 -0.14077,0.0588 -0.35384,0.7493 -0.27641,0.89582 1.93381,0.5558 5.90031,1.94317 7.18806,2.3405 1.60502,0.49523 3.42269,0.83123 4.88896,0.65001 2.539,-0.27947 4.32198,-1.48716 5.03027,-3.78271 0.77739,-2.51952 -0.64274,-4.40892 -2.87613,-5.64991 -0.0502,-0.0359 -0.0157,-0.14791 0.0461,-0.1493 2.03192,-0.0271 3.5951,-1.11868 4.08457,-2.70504 1.03076,-3.34069 -1.79686,-4.9081 -4.09242,-5.61639 -1.34374,-0.41461 -2.88424,-0.78773 -4.84386,-1.39237 -1.90364,-0.58736 -2.97597,-1.02042 -3.64784,-1.22773 -0.12925,0.0214 -0.34231,0.71197 -0.2764,0.89583 z m 6.63094,2.29124 c 2.63149,0.81194 3.54057,2.50278 2.82076,4.83567 -0.33974,1.10112 -0.97075,1.88753 -1.97182,2.15097 -0.38776,0.0643 -1.09994,-0.0124 -2.23839,-0.36361 -0.72786,-0.22458 -1.28199,-0.416 -1.56909,-0.54546 -0.056,-0.0173 -0.1076,-0.11496 -0.0903,-0.17095 0.59888,-1.94096 1.5389,-4.92129 1.83535,-5.74961 0.0647,-0.14355 0.22715,-0.33871 0.34489,-0.32283 0.24123,0.0131 0.58868,0.0794 0.86863,0.16582 z m -3.28508,16.01277 c -0.50391,-0.15548 -1.46565,-0.61574 -1.85577,-1.20623 -0.19794,-0.28591 -0.31526,-0.83311 -0.23027,-1.1748 0.2925,-1.27922 1.27997,-4.34711 1.87309,-6.2694 0.0288,-0.0933 0.12072,-0.12627 0.18247,-0.12766 0.21681,0.026 0.7767,0.19877 1.16863,0.3197 3.00475,0.92711 4.25532,2.96859 3.45489,5.56276 -0.80618,2.61283 -2.55877,3.5233 -4.59304,2.89563 z"
             inkscape:connector-curvature="0" />
          <path
             id="path4675"
             style="font-style:normal;font-variant:normal;font-weight:500;font-stretch:normal;font-family:'Adobe Naskh';-inkscape-font-specification:'Adobe Naskh Medium'"
             d="m 253.34687,865.62145 c 0.54192,0.17484 1.17532,0.38905 1.52908,0.60385 0.6664,0.341 0.78162,0.64496 0.64442,1.57422 -0.15978,1.22395 -0.68661,3.70776 -1.19723,6.11514 -0.6322,2.98056 -1.15497,5.44526 -1.53418,6.76243 -0.29411,0.91594 -0.64959,1.17996 -1.27431,1.20718 -0.52107,0.009 -1.0381,-5.6e-4 -1.87587,-0.0984 -0.1268,0.033 -0.27269,0.72083 -0.19452,0.9171 l 1.31832,0.27963 c 2.67082,0.58646 4.96241,1.17235 6.70107,1.54113 3.0761,0.65246 5.67453,0.54473 8.0402,-0.63062 2.11498,-1.02887 4.17204,-3.00841 4.93797,-6.61948 0.56735,-2.67487 0.10356,-5.28893 -1.46665,-7.2991 -1.28708,-1.65064 -3.22087,-2.69971 -5.8002,-3.2468 -2.56024,-0.54304 -3.6655,-0.69761 -5.66065,-1.08087 -0.85978,-0.18236 -3.30421,-0.80067 -3.91561,-0.93035 -0.11579,0.0753 -0.31495,0.73183 -0.25184,0.90494 z m 2.93794,15.51761 c 0.0967,-0.73819 0.70456,-3.60412 1.27597,-6.29809 0.53898,-2.54113 1.33733,-6.30505 1.55096,-7.21809 0.0747,-0.16385 0.25706,-0.36476 0.37575,-0.35955 0.23043,-0.0509 0.77756,0.005 1.29343,0.11462 1.73866,0.36878 3.26369,0.99173 4.27401,2.06456 1.79369,1.89785 2.29744,4.70007 1.69766,7.52779 -0.66461,3.13341 -1.83296,4.78235 -3.32438,5.88358 -1.46305,0.96749 -2.82422,1.07809 -4.12344,0.80252 -0.9362,-0.19858 -2.19895,-0.64611 -2.73509,-1.31886 -0.26807,-0.33638 -0.33466,-0.86962 -0.28487,-1.19848 z"
             inkscape:connector-curvature="0" />
          <path
             id="path4677"
             style="font-style:normal;font-variant:normal;font-weight:500;font-stretch:normal;font-family:'Adobe Naskh';-inkscape-font-specification:'Adobe Naskh Medium'"
             d="m 273.49521,869.70928 c 0.62498,0.18535 1.10057,0.31052 1.51006,0.48567 0.62822,0.30411 0.73141,0.55506 0.67721,1.51374 -0.0548,0.82058 -0.3958,3.27749 -0.73953,5.75375 -0.47532,3.4242 -0.84859,6.11326 -1.05701,7.18856 -0.17565,0.98127 -0.49751,1.31124 -1.13806,1.38007 -0.50244,0.0683 -1.2897,0.0576 -2.29244,0.0367 -0.0935,0.10533 -0.16277,0.74643 -0.1289,0.9286 1.45093,0.2014 3.24417,0.35173 5.06267,0.60416 3.11466,0.43235 5.55546,0.88947 8.05107,1.23589 1.39289,0.19335 1.57182,0.0407 1.75021,-0.25001 0.61255,-0.86146 1.62801,-3.20504 1.89825,-4.01542 -0.0946,-0.17088 -0.73947,-0.49702 -0.91627,-0.50184 -0.54321,0.93024 -1.31266,1.92766 -1.90427,2.49625 -0.69908,0.63255 -1.09082,0.75564 -2.4117,0.61172 -1.47028,-0.20409 -3.47418,-0.54141 -4.05241,-0.77942 -0.3348,-0.14507 -0.56859,-0.59161 -0.4934,-1.13329 0.16271,-1.45631 0.50858,-4.09001 0.74008,-5.61564 0.008,-0.058 0.13432,-0.25742 0.2117,-0.24667 1.02533,0.14232 3.36617,0.46726 4.09325,0.62734 0.62498,0.18535 0.80879,0.5658 0.90448,1.01289 0.0264,0.37831 0.0156,0.45569 0.0823,1.25369 0.13866,0.13756 0.91786,0.20628 1.08874,0.11169 0.0687,-0.7792 0.20244,-1.88459 0.33403,-2.83254 0.13964,-1.00598 0.41953,-2.16995 0.56887,-2.81965 -0.0973,-0.15154 -0.88777,-0.28098 -1.07531,-0.20842 -0.13378,0.39551 -0.28958,0.80769 -0.40725,1.08714 -0.27939,0.59221 -0.5545,0.86952 -1.21495,0.79756 -1.00006,-0.0402 -3.18613,-0.34368 -4.16739,-0.51933 -0.0774,-0.0107 -0.158,-0.14024 -0.14189,-0.25632 0.20892,-1.64707 0.57145,-4.25875 0.83785,-6.03587 0.0188,-0.13542 0.22459,-0.48151 0.44545,-0.51001 0.37294,0.0123 3.66172,0.46886 4.33076,0.62088 0.70774,0.1574 1.04308,0.44057 1.20059,1.15258 0.14835,0.49384 0.18924,1.05163 0.16835,2.05438 0.10534,0.0935 0.88185,0.18157 1.05273,0.087 0.25944,-1.44288 0.69941,-3.33394 1.05509,-4.19162 0.008,-0.058 -0.0366,-0.16282 -0.0946,-0.17088 -0.84798,6e-4 -2.42036,-0.17822 -3.5811,-0.33935 l -5.90046,-0.81905 c -1.56701,-0.21752 -3.23397,-0.56722 -4.18192,-0.69881 -0.15153,0.0973 -0.30087,0.74698 -0.1649,0.90388 z"
             inkscape:connector-curvature="0" />
          <path
             id="path4679"
             style="font-style:normal;font-variant:normal;font-weight:500;font-stretch:normal;font-family:'Adobe Naskh';-inkscape-font-specification:'Adobe Naskh Medium'"
             d="m 312.82546,877.65218 c 0.0114,0.13764 0.89223,0.13123 1.01847,-0.0178 0.0868,-1.46227 0.51816,-3.78453 0.771,-4.74781 -1.37849,-0.17966 -3.51603,-0.75657 -5.97264,-0.90241 -2.5151,-0.14931 -4.47423,0.22352 -6.16175,0.96466 -3.37502,1.48228 -5.1441,4.58603 -5.33971,7.88101 -0.37617,6.3365 3.29653,10.05678 9.96447,10.45263 2.02768,0.12038 3.6519,-0.21364 4.60511,-0.45054 0.77098,-0.46293 2.17949,-2.76632 2.56552,-3.99561 -0.0641,-0.23859 -0.55482,-0.54164 -0.76697,-0.59337 -0.7943,1.18548 -1.62066,2.25167 -2.41808,2.83043 -0.8617,0.67277 -2.06605,0.85562 -3.15788,0.79081 -5.1082,-0.30326 -7.12098,-4.62936 -6.85708,-9.07466 0.31136,-5.24467 2.80164,-7.97298 6.64253,-7.74496 1.32579,0.0787 2.56318,0.32825 3.54461,0.93436 1.13277,0.69335 1.3938,1.56973 1.5624,3.67326 z"
             inkscape:connector-curvature="0" />
          <path
             id="path4681"
             style="font-style:normal;font-variant:normal;font-weight:500;font-stretch:normal;font-family:'Adobe Naskh';-inkscape-font-specification:'Adobe Naskh Medium'"
             d="m 316.17477,873.70847 c 0.64327,0.10568 1.13078,0.17035 1.55898,0.29288 0.66133,0.2231 0.79512,0.45916 0.86131,1.41709 0.0484,0.82098 0.0175,3.30126 -0.0137,5.80106 -0.0431,3.45677 -0.0769,6.1714 -0.14911,7.26433 -0.0515,0.99553 -0.32951,1.36319 -0.95641,1.51164 -0.48995,0.13063 -1.27235,0.21854 -2.26983,0.32331 -0.0796,0.11621 -0.0681,0.76093 -0.0117,0.93743 1.46473,0.0182 3.26268,-0.057 5.09848,-0.0341 3.14429,0.0392 5.6231,0.18726 8.14244,0.21865 1.40614,0.0175 1.56457,-0.1563 1.70517,-0.46707 0.49992,-0.93134 1.21412,-3.38357 1.38082,-4.22141 -0.11523,-0.15769 -0.79585,-0.40057 -0.97186,-0.38323 -0.42253,0.99091 -1.06111,2.07679 -1.57692,2.71494 -0.61442,0.71506 -0.98768,0.8862 -2.31618,0.90871 -1.48426,-0.0185 -3.51463,-0.10239 -4.1181,-0.26617 -0.35032,-0.10203 -0.63816,-0.5158 -0.63134,-1.06263 -0.0208,-1.46522 -0.007,-4.12151 0.0315,-5.66411 7.3e-4,-0.0586 0.10105,-0.2722 0.17917,-0.27123 1.03508,0.0129 3.39818,0.0423 4.13957,0.11018 0.64327,0.10568 0.87325,0.46013 1.02413,0.89173 0.0735,0.37204 0.0725,0.45016 0.23856,1.23354 0.15477,0.11913 0.93645,0.0898 1.09415,-0.0254 -0.0293,-0.78168 -0.035,-1.89512 -0.0231,-2.85207 0.0127,-1.01555 0.14467,-2.2054 0.21154,-2.86868 -0.11548,-0.13817 -0.91596,-0.16768 -1.09294,-0.0722 -0.0832,0.40915 -0.18623,0.83759 -0.268,1.12956 -0.20308,0.62252 -0.44133,0.93207 -1.10559,0.94333 -0.99723,0.0852 -3.20409,0.0577 -4.19962,0.006 -0.0781,-9.7e-4 -0.17431,-0.11937 -0.17285,-0.23655 10e-4,-1.66027 0.034,-4.29678 0.0759,-6.09327 0.002,-0.13671 0.16257,-0.50583 0.37813,-0.56174 0.37155,-0.0344 3.6916,0.007 4.37441,0.074 0.72187,0.0676 1.09002,0.30657 1.33539,0.99327 0.20898,0.47139 0.31935,1.01969 0.42412,2.01716 0.1162,0.0796 0.89763,0.0698 1.05533,-0.0454 0.0768,-1.464 0.2767,-3.39525 0.52225,-4.2907 7.3e-4,-0.0586 -0.0566,-0.15696 -0.11523,-0.15769 -0.84124,0.10671 -2.42363,0.12606 -3.59542,0.11146 l -5.95657,-0.0742 c -1.58191,-0.0197 -3.27953,-0.15806 -4.23649,-0.16998 -0.13817,0.11547 -0.20503,0.77875 -0.0505,0.91741 z"
             inkscape:connector-curvature="0" />
          <path
             id="path4683"
             style="font-style:normal;font-variant:normal;font-weight:500;font-stretch:normal;font-family:'Adobe Naskh';-inkscape-font-specification:'Adobe Naskh Medium'"
             d="m 334.14878,885.93877 c -0.13856,-0.0748 -0.89535,0.13881 -0.96874,0.33595 0.0835,1.03344 0.70654,4.1834 1.00931,4.58637 0.71282,0.39309 2.56188,0.91506 4.47538,0.86891 4.45183,-0.10738 6.84989,-2.74409 6.77689,-5.77056 -0.0532,-2.20639 -1.21678,-3.46776 -3.13902,-4.59361 -1.14896,-0.65608 -2.31557,-1.23359 -3.56499,-2.00447 -1.26989,-0.80946 -2.01258,-1.63163 -2.02838,-3.09652 -0.0353,-1.46442 0.96704,-2.83664 2.78292,-2.88044 0.93722,-0.0226 1.72249,0.13429 2.37813,0.58736 0.73375,0.45119 1.06735,1.3223 1.34546,3.13253 0.11904,0.0753 0.84148,0.0579 0.93581,-0.0812 0.0771,-1.6625 0.23471,-3.22926 0.40406,-4.30787 -1.37009,-0.10372 -2.60868,-0.42551 -4.77601,-0.37323 -3.33888,0.0805 -6.08629,2.0028 -6.00529,5.3612 0.0702,2.90931 2.0771,4.30664 4.75073,5.80511 2.79267,1.57374 3.69392,2.48978 3.73442,4.16898 0.0466,1.93303 -1.33849,2.82606 -2.80291,2.86138 -1.01533,0.0245 -2.07536,-0.18438 -2.87004,-0.73179 -1.09228,-0.73559 -1.78487,-1.91064 -2.43773,-3.86812 z"
             inkscape:connector-curvature="0" />
          <path
             id="path4685"
             style="font-style:normal;font-variant:normal;font-weight:500;font-stretch:normal;font-family:'Adobe Naskh';-inkscape-font-specification:'Adobe Naskh Medium'"
             d="m 346.70293,873.51394 c 0.80372,0.0371 1.23584,0.0737 1.75097,0.2038 0.59415,0.14562 0.75264,0.56776 0.82657,1.24847 0.16837,1.37992 0.25616,3.09642 0.39783,5.86624 0.16362,3.19894 0.33122,6.47591 0.30209,7.43568 -0.0311,0.92076 -0.16923,1.27985 -0.99899,1.4983 -0.34712,0.096 -0.81126,0.19795 -1.43146,0.3079 -0.13155,0.10451 -0.0946,0.82622 0.0479,0.93627 1.05331,-0.0539 2.27718,-0.21425 4.42282,-0.324 1.77502,-0.0908 3.22144,-0.10609 4.17922,-0.11597 0.0925,-0.10252 0.13365,-0.82822 0.0496,-0.94126 -0.66918,-0.0831 -1.35687,-0.14573 -1.75297,-0.24281 -0.88774,-0.15016 -0.99569,-0.73134 -1.07262,-1.47057 -0.11338,-1.06982 -0.24508,-3.64458 -0.41268,-6.92155 -0.1317,-2.57475 -0.25141,-4.91545 -0.24976,-6.03027 0.0136,-0.88075 0.0502,-1.31287 0.72191,-1.56235 0.36562,-0.11648 0.9078,-0.22244 1.52899,-0.31288 0.10805,-0.18154 0.0556,-0.82423 -0.0479,-0.93628 -0.6827,0.0349 -1.90658,0.1953 -4.11073,0.30804 -1.79453,0.0918 -3.32096,0.0721 -4.15971,0.11497 -0.11205,0.10351 -0.11614,0.78821 0.009,0.93827 z"
             inkscape:connector-curvature="0" />
          <path
             id="path4687"
             style="font-style:normal;font-variant:normal;font-weight:500;font-stretch:normal;font-family:'Adobe Naskh';-inkscape-font-specification:'Adobe Naskh Medium'"
             d="m 364.20323,872.47449 c 0.54996,0.007 1.23787,0.0204 1.63595,0.0809 0.77488,0.10336 0.92829,0.48123 1.03775,1.43218 0.16596,0.92599 0.32579,2.61768 0.63993,5.94272 0.32701,3.46114 0.53949,6.54075 0.55464,7.32405 0.006,0.68607 -0.15542,1.05445 -0.74167,1.2864 -0.55103,0.18939 -0.9557,0.26686 -1.85857,0.46987 -0.10748,0.10824 -0.0432,0.78881 0.0882,0.93334 0.83612,-0.079 2.55751,-0.33972 4.40475,-0.51424 1.88613,-0.1782 6.13977,-0.42313 8.31757,-0.62889 1.05001,-0.0992 1.34459,-0.3036 1.43921,-0.54796 0.52854,-1.05046 1.11804,-4.36278 1.16229,-5.34787 -0.0962,-0.1871 -0.79875,-0.35614 -0.96825,-0.28127 -0.42871,1.27645 -1.08816,2.81012 -1.59801,3.64302 -0.48674,0.86995 -1.01282,1.11584 -1.63505,1.17463 -1.29912,0.16197 -3.67136,0.3861 -4.43047,0.24201 -0.18419,-0.0807 -0.58119,-0.33745 -0.6484,-0.84117 -0.15754,-1.0445 -0.48302,-4.0742 -0.80267,-7.45757 -0.23668,-2.92037 -0.44978,-5.17595 -0.46677,-5.97869 -0.0504,-0.74074 -0.0214,-1.05736 0.63893,-1.33555 0.36394,-0.0932 0.70476,-0.22353 1.49464,-0.37663 0.10197,-0.16658 0.0377,-0.84715 -0.0882,-0.93335 -0.85556,0.0808 -1.97417,0.28461 -4.0353,0.47934 -2.19725,0.2076 -3.12033,0.19672 -4.17035,0.29592 -0.11115,0.0694 -0.10335,0.77488 0.0299,0.93885 z"
             inkscape:connector-curvature="0" />
          <path
             id="path4689"
             style="font-style:normal;font-variant:normal;font-weight:500;font-stretch:normal;font-family:'Adobe Naskh';-inkscape-font-specification:'Adobe Naskh Medium'"
             d="m 377.35583,871.23056 c 0.5499,-0.0107 0.98354,-0.007 1.40273,0.0385 0.92081,0.11935 1.29909,0.30758 2.6495,2.10494 1.399,1.86993 3.53425,4.88674 4.32647,6.16432 0.23342,0.44288 0.42101,0.99002 0.48005,1.45504 0.16236,1.27879 0.30504,2.40258 0.43141,3.86314 0.10823,0.85253 0.0682,1.46794 -0.70403,1.74318 -0.46963,0.17775 -1.11611,0.35827 -1.91513,0.57784 -0.0701,0.068 -0.0154,0.80917 0.11562,0.91066 1.04629,-0.13284 2.1747,-0.39423 4.44166,-0.68204 1.70506,-0.21648 3.59926,-0.33884 4.50992,-0.45445 0.0628,-0.1261 0.0299,-0.85038 -0.0381,-0.9205 -0.75104,-0.0228 -1.3034,-0.0314 -1.80255,-0.0862 -0.83592,-0.0711 -1.02843,-0.65695 -1.20248,-1.7177 -0.21125,-1.50884 -0.44404,-2.87714 -0.60639,-4.15593 -0.0566,-0.44565 0.0299,-0.85038 0.13566,-1.25757 0.51087,-1.40365 2.05148,-5.24153 2.99478,-7.27103 0.6708,-1.38458 1.04787,-1.82621 1.90471,-2.21063 0.334,-0.16053 0.81102,-0.28016 1.24928,-0.39487 0.10149,-0.13101 0.006,-0.88666 -0.11808,-0.93003 -0.98324,0.16421 -1.77027,0.32319 -3.24282,0.51015 -1.2788,0.16236 -2.62802,0.23521 -3.46118,0.34099 -0.10887,0.0729 -0.0834,0.73904 0.0406,0.93988 0.66861,-0.006 1.02475,0.008 1.50207,0.0456 0.77779,0.0784 0.83899,0.40537 0.73595,0.98941 -0.28575,1.316 -1.77315,5.10775 -2.53038,6.89706 -0.0557,0.0267 -0.15255,0.0391 -0.21067,0.0464 -0.6606,-0.86116 -3.46167,-4.93534 -4.30494,-6.30488 -0.26725,-0.3992 -0.30415,-0.68984 0.0855,-0.87713 0.20575,-0.0852 0.69476,-0.2654 1.00231,-0.32413 0.10149,-0.13102 -0.0283,-0.843 -0.15683,-0.92512 -0.44072,0.0953 -2.42904,0.40683 -3.88222,0.59133 -1.45318,0.1845 -3.01553,0.28441 -3.88744,0.39511 -0.10396,0.11164 -0.0834,0.73904 0.055,0.89866 z"
             inkscape:connector-curvature="0" />
          <path
             id="path4691"
             style="font-style:normal;font-variant:normal;font-weight:500;font-stretch:normal;font-family:'Adobe Naskh';-inkscape-font-specification:'Adobe Naskh Medium'"
             d="m 407.60996,885.15841 c 3.02428,-0.50651 5.78108,-2.25543 7.22051,-5.13034 0.93612,-1.85986 1.17526,-3.97926 0.77522,-6.36786 -0.82267,-4.91206 -4.7205,-8.67538 -10.76906,-7.66237 -3.08208,0.51619 -5.73288,2.30676 -7.09895,4.55549 -1.26995,1.99498 -1.60209,4.26858 -1.2214,6.54161 0.40972,2.44639 1.59328,4.90181 3.72662,6.52485 1.83774,1.39529 4.32351,2.04835 7.36706,1.53862 z m 0.77907,-1.4969 c -1.34841,0.22583 -2.47239,0.018 -3.54523,-0.47563 -2.6244,-1.36256 -4.15535,-4.59154 -4.64573,-7.51951 -0.4936,-2.94723 -0.13935,-5.68 1.58047,-7.23545 0.56471,-0.53024 1.43135,-0.91303 2.37524,-1.07111 1.32914,-0.2226 2.49165,-0.0212 3.56136,0.57194 2.37066,1.26644 3.79865,4.23541 4.32129,7.35601 0.44198,2.63902 0.34774,5.26884 -1.05733,6.92999 -0.57097,0.72933 -1.54987,1.26954 -2.59007,1.44376 z"
             inkscape:connector-curvature="0" />
          <path
             id="path4693"
             style="font-style:normal;font-variant:normal;font-weight:500;font-stretch:normal;font-family:'Adobe Naskh';-inkscape-font-specification:'Adobe Naskh Medium'"
             d="m 415.59212,865.59722 c 0.97105,-0.12979 1.6041,-0.0667 2.21959,0.1001 0.73416,0.16115 1.16223,0.84798 1.29005,1.43981 1.0807,5.28151 2.12581,10.49078 2.30293,12.05105 0.13131,1.07062 -0.0752,1.59478 -0.72124,1.93412 -0.4252,0.25168 -0.88186,0.45022 -1.53356,0.67089 -0.0748,0.11607 0.0586,0.82656 0.19791,0.91637 0.78273,-0.16904 1.96486,-0.52425 3.64487,-0.88709 1.5082,-0.32572 2.86519,-0.51888 3.7052,-0.70029 0.0816,-0.17747 -0.001,-0.83894 -0.14063,-0.92875 -0.7502,0.0421 -1.31622,0.10443 -1.80739,0.0507 -0.81984,-0.003 -1.33055,-0.33207 -1.64758,-1.52244 -0.38972,-1.43443 -1.80501,-7.80261 -2.4198,-10.92683 -0.004,-0.0191 0.0408,-0.0887 0.15273,-0.033 2.35485,1.92918 11.7376,9.7537 13.87833,11.70914 0.45407,-0.11805 2.04947,-0.50257 2.44366,-0.52776 -0.2567,-1.00358 -0.64275,-2.69856 -0.92724,-4.01585 -0.99519,-4.70053 -1.84759,-8.83245 -2.17619,-11.27916 -0.16125,-1.0242 -0.008,-1.5169 0.7553,-1.96146 0.35708,-0.19701 0.72653,-0.33675 1.15326,-0.48885 0.0898,-0.13929 -0.0627,-0.84566 -0.19791,-0.91637 -0.43909,0.0948 -1.90758,0.51188 -3.20578,0.79225 -1.85184,0.39994 -3.18974,0.58898 -3.95338,0.7539 -0.0831,0.0779 0.0204,0.83481 0.19791,0.91638 0.78013,-0.0886 1.32705,-0.14674 1.91368,-0.11358 0.96585,0.0312 1.29802,0.45899 1.56817,1.33978 0.5939,2.00976 1.58496,6.6912 2.41783,10.5476 -0.0531,0.0315 -0.0449,0.0697 -0.12127,0.0861 -2.05155,-1.63501 -8.68023,-6.97717 -12.03634,-9.74913 -0.88779,-0.68745 -1.22668,-1.05385 -1.43453,-1.36863 -0.32043,0.0892 -0.99946,0.27579 -1.72492,0.43247 -1.62275,0.35046 -3.09841,0.54927 -3.97248,0.75802 -0.0557,0.11195 0.0586,0.82657 0.17882,0.9205 z"
             inkscape:connector-curvature="0" />
        </g>
        <path
           style="fill:#3b65aa;fill-opacity:1;fill-rule:evenodd;stroke:none;stroke-width:1px;stroke-linecap:butt;stroke-linejoin:miter;stroke-opacity:1"
           d="m 393.425,12.630613 0,52.64179 13.68686,16.31896 0,-11.05478 17.89821,7.36985 1.57926,-26.84731 z"
           id="path4695"
           inkscape:connector-curvature="0" />
        <circle
           style="fill:#ffffff;fill-opacity:1;stroke:none;stroke-width:0.2;stroke-linecap:round;stroke-linejoin:round;stroke-miterlimit:4;stroke-dasharray:none;stroke-opacity:1"
           id="circle4697"
           cx="452.63617"
           cy="140.01749"
           r="2.0472853" />
        <circle
           r="2.0472853"
           cy="140.76193"
           cx="511.26297"
           id="circle4699"
           style="fill:#ffffff;fill-opacity:1;stroke:none;stroke-width:0.2;stroke-linecap:round;stroke-linejoin:round;stroke-miterlimit:4;stroke-dasharray:none;stroke-opacity:1" />
      </g>
      <flowRoot
         transform="translate(2277.794,-320.09809)"
         xml:space="preserve"
         id="flowRoot5142"
         style="font-style:normal;font-weight:normal;font-size:30.16022682px;line-height:125%;font-family:sans-serif;letter-spacing:0px;word-spacing:0px;fill:#815454;fill-opacity:1;stroke:none;stroke-width:1px;stroke-linecap:butt;stroke-linejoin:miter;stroke-opacity:1"><flowRegion
           id="flowRegion5144"><rect
             id="rect5146"
             width="49.625965"
             height="40.916103"
             x="375.82196"
             y="708.79163"
             style="fill:#815454;fill-opacity:1" /></flowRegion><flowPara
           id="flowPara5148">#</flowPara></flowRoot>    </g>
    <flowRoot
       xml:space="preserve"
       id="flowRoot4915"
       style="fill:black;stroke:none;stroke-opacity:1;stroke-width:1px;stroke-linejoin:miter;stroke-linecap:butt;fill-opacity:1;font-family:'Adobe Naskh';font-style:normal;font-weight:500;font-size:40px;line-height:125%;letter-spacing:0px;word-spacing:0px;-inkscape-font-specification:'Adobe Naskh Medium';font-stretch:normal;font-variant:normal;"><flowRegion
         id="flowRegion4917"><rect
           id="rect4919"
           width="216.64"
           height="74.446739"
           x="-315.65414"
           y="164.95712"
           style="-inkscape-font-specification:'Adobe Naskh Medium';font-family:'Adobe Naskh';font-weight:500;font-style:normal;font-stretch:normal;font-variant:normal;" /></flowRegion><flowPara
         id="flowPara4921" /></flowRoot>  </g>
</svg>
